<svg width="764" height="470" viewBox="0 10 764 470" fill="none" xmlns="http://www.w3.org/2000/svg">
<path d="M591 245C634.078 245 669 192.841 669 128.5C669 64.1588 634.078 12 591 12C547.922 12 513 64.1588 513 128.5C513 192.841 547.922 245 591 245Z" fill="#F2F2F2"/>
<path d="M649.844 47C666.241 107.372 648.44 177.235 610.084 203.044C580.243 223.124 545.588 210.953 524 172.812C540.395 233.186 584.781 261.208 623.137 235.402C661.494 209.596 679.297 139.733 662.902 79.3597C659.816 67.8423 655.417 56.9433 649.844 47V47Z" fill="#E6E6E6"/>
<path d="M591.5 73H591.947L600 470H583L591.5 73Z" fill="#CCCCCC"/>
<path d="M621.983 272.126L616.425 267.808L603.713 275.826L591 283.844L596.558 288.163L621.983 272.126Z" fill="#CCCCCC"/>
<path d="M162 277C206.183 277 242 233.124 242 179C242 124.876 206.183 81 162 81C117.817 81 82 124.876 82 179C82 233.124 117.817 277 162 277Z" fill="#F2F2F2"/>
<path d="M219.447 110C236.184 160.92 218.015 219.845 178.865 241.613C148.407 258.549 113.035 248.284 91 216.114C107.734 267.035 153.038 290.67 192.188 268.905C231.339 247.139 249.51 188.214 232.776 137.293C229.626 127.579 225.136 118.386 219.447 110V110Z" fill="#E6E6E6"/>
<path d="M158 123H158.368L165 457H151L158 123Z" fill="#CCCCCC"/>
<path d="M184.037 299.148L179.366 295.519L168.683 302.257L158 308.995L162.671 312.625L184.037 299.148Z" fill="#CCCCCC"/>
<path d="M71.5 301C115.407 301 151 234.962 151 153.5C151 72.038 115.407 6 71.5 6C27.5934 6 -8 72.038 -8 153.5C-8 234.962 27.5934 301 71.5 301Z" fill="#F2F2F2"/>
<path d="M130.655 65C148.07 137.568 129.164 221.545 88.4274 252.568C56.734 276.704 19.9282 262.075 -3 216.229C14.4129 288.799 61.5531 322.482 102.291 291.463C143.028 260.443 161.936 176.467 144.524 103.897C141.243 90.047 136.572 76.9455 130.655 65Z" fill="#E6E6E6"/>
<path d="M65.9995 55H66.3675L73 457H59L65.9995 55Z" fill="#CCCCCC"/>
<path d="M89.9901 357.659L70.3564 370.043L73.0926 376.269L92.7262 363.885L89.9901 357.659Z" fill="#CCCCCC"/>
<path d="M387 303C425.108 303 456 236.962 456 155.5C456 74.038 425.108 8 387 8C348.892 8 318 74.038 318 155.5C318 236.962 348.892 303 387 303Z" fill="#F2F2F2"/>
<path d="M438.297 67C453.45 139.568 437 223.545 401.554 254.568C373.976 278.704 341.95 264.075 322 218.229C337.151 290.799 378.17 324.482 413.617 293.463C449.063 262.443 465.516 178.467 450.365 105.897C447.51 92.047 443.446 78.9455 438.297 67Z" fill="#E6E6E6"/>
<path d="M382 57H382.315L388 459H376L382 57Z" fill="#CCCCCC"/>
<path d="M403.048 359.659L386.007 372.043L388.382 378.269L405.423 365.885L403.048 359.659Z" fill="#CCCCCC"/>
<path d="M301.281 317C308.95 317 315.167 308.046 315.167 297C315.167 285.954 308.95 277 301.281 277C293.613 277 287.396 285.954 287.396 297C287.396 308.046 293.613 317 301.281 317Z" fill="#2F2E41"/>
<path d="M284.976 425L284.708 416.184L302.23 410L302.625 423.013L284.976 425Z" fill="#FFB8B8"/>
<path d="M284.982 408.993L285.163 426.453L283.212 427.095L282.917 398.643C283.173 398.558 283.43 398.759 283.672 399.233C283.915 399.708 284.138 400.447 284.33 401.408C284.522 402.369 284.678 403.534 284.79 404.835C284.902 406.137 284.967 407.549 284.982 408.993Z" fill="#2F2E41"/>
<path d="M313.375 425.046L308.582 432L283.812 413.263L290.885 403L313.375 425.046Z" fill="#FFB8B8"/>
<path d="M310.137 430.511L312.108 417L313.618 423.992L310.406 446.011C310.208 445.092 310.043 443.963 309.923 442.687C309.802 441.411 309.727 440.014 309.702 438.575C309.677 437.135 309.702 435.683 309.777 434.299C309.852 432.916 309.974 431.628 310.137 430.511V430.511Z" fill="#2F2E41"/>
<path d="M287.503 392.556L286.804 411.107C286.788 411.534 286.789 411.976 286.807 412.401C286.825 412.826 286.859 413.224 286.907 413.565C286.956 413.907 287.017 414.184 287.086 414.376C287.156 414.569 287.232 414.673 287.31 414.68L294.176 415.304C294.253 415.311 294.33 415.221 294.401 415.042C294.471 414.862 294.534 414.597 294.584 414.265C294.634 413.933 294.671 413.543 294.691 413.122C294.712 412.701 294.715 412.26 294.702 411.831L294.101 392.656C294.08 391.971 294.016 391.351 293.922 390.904C293.827 390.456 293.707 390.211 293.584 390.211H288.016C287.896 390.211 287.779 390.444 287.686 390.871C287.592 391.298 287.528 391.893 287.503 392.556V392.556Z" fill="#2F2E41"/>
<path d="M306.208 398.743C306.208 398.743 285.441 375.128 281.369 387.673C279.333 393.946 280.351 400.034 281.878 404.554C283.295 408.67 285.33 411.97 287.743 414.068L304.58 429L310.688 417.192L306.616 410.551L306.208 398.743Z" fill="#2F2E41"/>
<path d="M295.925 395.648C295.925 395.648 323.467 381.813 318.042 408.028C312.617 434.244 292.17 424.049 292.17 424.049L290.083 413.125L297.177 404.387L295.925 395.648Z" fill="#2F2E41"/>
<path d="M301.281 320C308.455 320 314.271 311.941 314.271 302C314.271 292.059 308.455 284 301.281 284C294.107 284 288.292 292.059 288.292 302C288.292 311.941 294.107 320 301.281 320Z" fill="#FFB8B8"/>
<path d="M302.59 398C298.518 397.886 294.466 396.897 290.516 395.054L290.399 394.995L284.93 348.405C284.438 344.311 284.772 340.025 285.87 336.356C286.968 332.688 288.753 329.891 290.889 328.493C297.485 324.11 304.675 323.845 311.361 327.736H311.361C313.604 329.075 315.493 331.931 316.649 335.734C317.806 339.537 318.145 344.008 317.6 348.254L311.491 394.956L311.405 395.032C308.866 397.259 305.692 398 302.59 398Z" fill="#CCCCCC"/>
<path d="M288.932 401.948C288.998 400.925 289.102 399.995 289.238 399.223C289.374 398.452 289.538 397.858 289.72 397.483C289.901 397.109 290.094 396.962 290.287 397.055C290.479 397.147 290.665 397.476 290.833 398.018L294.376 380.691L294.697 394.308L291.283 408.675C291.102 410.198 290.829 411.296 290.515 411.76C290.201 412.224 289.867 412.022 289.577 411.193C289.287 410.364 289.062 408.965 288.943 407.261C288.824 405.557 288.82 403.666 288.932 401.948V401.948Z" fill="#FFB8B8"/>
<path d="M299.686 405C299.448 405 299.21 404.952 298.981 404.859C298.61 404.713 298.27 404.447 297.99 404.085C297.71 403.724 297.498 403.276 297.371 402.78L295.6 395.965C295.434 395.336 295.413 394.652 295.54 394.006C295.666 393.359 295.934 392.78 296.308 392.345L316.297 376.046L308.417 328.299L308.618 328.234C308.699 328.206 316.772 325.71 320.08 337.693C322.397 346.085 330.97 364.333 330.365 376.664C330.25 379.13 329.527 381.472 328.311 383.311C327.096 385.15 325.46 386.38 323.667 386.8L301.167 404.31C300.743 404.756 300.222 404.999 299.686 405Z" fill="#CCCCCC"/>
<path d="M292.853 400.325C292.788 399.302 292.683 398.372 292.547 397.601C292.411 396.829 292.247 396.235 292.066 395.861C291.884 395.486 291.691 395.34 291.498 395.432C291.306 395.525 291.12 395.854 290.952 396.396L287.409 379.069L287.089 392.685L290.502 407.052C290.683 408.575 290.956 409.673 291.27 410.137C291.585 410.601 291.918 410.4 292.208 409.571C292.498 408.741 292.723 407.342 292.842 405.638C292.961 403.934 292.965 402.044 292.853 400.325V400.325Z" fill="#FFB8B8"/>
<path d="M298.207 403C297.761 402.999 297.327 402.756 296.974 402.31L276.872 386.277C275.379 385.856 274.016 384.627 273.003 382.788C271.991 380.949 271.388 378.607 271.292 376.14C270.788 363.81 279.289 344.085 281.218 335.693C283.974 323.711 290.699 326.206 290.767 326.234L290.934 326.3L283.012 375.523L301.021 390.345C301.333 390.78 301.556 391.359 301.661 392.006C301.767 392.652 301.749 393.336 301.611 393.965L300.136 400.78C300.03 401.276 299.853 401.724 299.62 402.085C299.387 402.447 299.104 402.713 298.794 402.859C298.604 402.952 298.406 403 298.207 403V403Z" fill="#CCCCCC"/>
<path d="M315.602 413H286.961C286.364 412.998 285.791 412.448 285.369 411.469C284.947 410.49 284.709 409.162 284.708 407.778V371.222C284.709 369.838 284.947 368.51 285.369 367.531C285.791 366.552 286.364 366.002 286.961 366H315.602C316.199 366.002 316.771 366.552 317.194 367.531C317.616 368.51 317.853 369.838 317.854 371.222V407.778C317.853 409.162 317.616 410.49 317.194 411.469C316.771 412.448 316.199 412.998 315.602 413V413Z" fill="#6C63FF"/>
<path d="M300.397 394.27C301.64 394.27 302.648 392.419 302.648 390.135C302.648 387.851 301.64 386 300.397 386C299.154 386 298.146 387.851 298.146 390.135C298.146 392.419 299.154 394.27 300.397 394.27Z" fill="white"/>
<path d="M288.547 301C287.691 298.132 289.095 294.714 291.179 293.325C293.262 291.936 295.776 292.2 298.005 293.116C299.878 293.885 301.633 295.078 303.46 296.02C305.262 297.074 307.229 297.537 309.195 297.369C311.144 297.078 313.084 295.634 313.882 293.268C314.708 290.814 314.146 287.82 312.873 285.727C311.519 283.702 309.766 282.214 307.809 281.428C303.512 279.428 298.548 279.369 294.559 282.276C290.569 285.183 287.858 291.372 288.683 297.29" fill="#2F2E41"/>
<path d="M269.289 405.241C269.451 395.399 269.899 385.774 270.615 376.75C270.814 374.239 271.034 371.783 271.274 369.382C271.286 369.256 271.288 369.109 271.282 368.972C271.275 368.835 271.259 368.718 271.237 368.646C271.215 368.574 271.189 368.552 271.164 368.586C271.14 368.62 271.119 368.706 271.105 368.827C270.233 377.571 269.623 387.063 269.297 396.923C269.207 399.676 269.139 402.449 269.093 405.241C269.082 405.946 269.277 405.941 269.289 405.241V405.241Z" fill="#E6E6E6"/>
<path d="M269.415 405.426C269.52 399.041 269.811 392.797 270.275 386.943C270.405 385.313 270.547 383.72 270.703 382.163C270.711 382.081 270.712 381.986 270.708 381.897C270.704 381.808 270.693 381.732 270.679 381.685C270.665 381.638 270.648 381.624 270.632 381.646C270.616 381.668 270.602 381.724 270.593 381.803C270.028 387.475 269.632 393.633 269.421 400.03C269.362 401.816 269.318 403.615 269.288 405.426C269.281 405.883 269.408 405.88 269.415 405.426H269.415Z" fill="#E6E6E6"/>
<path d="M269.255 405C268.641 399.601 268.188 393.67 267.916 387.445C267.84 385.712 267.778 383.962 267.731 382.195C267.728 382.103 267.719 382.022 267.706 381.967C267.693 381.912 267.676 381.888 267.66 381.9C267.644 381.913 267.629 381.96 267.619 382.033C267.608 382.105 267.604 382.198 267.605 382.29C267.779 388.722 268.138 394.95 268.67 400.725C268.819 402.337 268.981 403.908 269.155 405.439C269.199 405.825 269.299 405.384 269.255 405V405Z" fill="#E6E6E6"/>
<path d="M266.793 408.997V400.12C266.794 399.238 266.856 398.392 266.967 397.768C267.077 397.144 267.228 396.793 267.384 396.792H271.061C271.217 396.793 271.367 397.144 271.478 397.768C271.589 398.392 271.651 399.238 271.651 400.12V408.997C271.651 409.879 271.589 410.725 271.478 411.349C271.367 411.973 271.217 412.325 271.061 412.326H267.384C267.228 412.325 267.077 411.973 266.967 411.349C266.856 410.725 266.794 409.879 266.793 408.997V408.997Z" fill="#F2F2F2"/>
<path d="M280.229 413C280.229 418.049 277.422 420.343 273.958 420.343C270.495 420.343 267.688 418.049 267.688 413C267.688 407.952 269.081 402.061 273.958 404.092C278.836 401.045 280.229 407.952 280.229 413Z" fill="#FF6584"/>
<path d="M274.365 405.956C274.141 405.957 273.924 405.832 273.755 405.607C273.586 405.381 273.477 405.07 273.448 404.73C273.257 402.306 272.203 397.559 271.759 395.63C271.714 395.439 271.7 395.232 271.719 395.031C271.737 394.829 271.788 394.638 271.866 394.472C271.94 394.324 272.034 394.202 272.142 394.114C272.25 394.026 272.368 393.973 272.49 393.959C272.612 393.946 272.735 393.972 272.85 394.036C272.965 394.1 273.069 394.2 273.157 394.33C273.235 394.455 273.296 394.603 273.335 394.766C273.374 394.928 273.391 395.101 273.384 395.273C273.297 397.748 274.481 401.748 275.195 403.912C275.263 404.116 275.296 404.342 275.294 404.57C275.291 404.799 275.252 405.023 275.18 405.223C275.108 405.423 275.005 405.594 274.88 405.72C274.755 405.847 274.612 405.925 274.463 405.948C274.431 405.954 274.398 405.956 274.365 405.956Z" fill="#3F3D56"/>
<path d="M278.613 402.916C280.196 400.357 278.954 395.121 276.972 396.127C276.706 396.252 276.46 396.511 276.258 396.878C275.043 399.145 274.854 404.946 274.854 404.946C274.854 404.946 277.001 405.52 278.613 402.916Z" fill="#3F3D56"/>
<path d="M700.281 318C707.95 318 714.167 309.046 714.167 298C714.167 286.954 707.95 278 700.281 278C692.613 278 686.396 286.954 686.396 298C686.396 309.046 692.613 318 700.281 318Z" fill="#2F2E41"/>
<path d="M683.976 426L683.708 417.184L701.23 411L701.625 424.013L683.976 426Z" fill="#FFB8B8"/>
<path d="M683.982 409.993L684.163 427.453L682.212 428.095L681.917 399.643C682.173 399.558 682.43 399.759 682.672 400.233C682.915 400.708 683.138 401.447 683.33 402.408C683.522 403.369 683.678 404.534 683.79 405.835C683.902 407.137 683.967 408.549 683.982 409.993Z" fill="#2F2E41"/>
<path d="M712.375 426.046L707.582 433L682.812 414.263L689.885 404L712.375 426.046Z" fill="#FFB8B8"/>
<path d="M709.137 431.511L711.108 418L712.618 424.992L709.406 447.011C709.208 446.092 709.043 444.963 708.922 443.687C708.802 442.411 708.727 441.014 708.702 439.575C708.677 438.135 708.702 436.683 708.777 435.299C708.852 433.916 708.974 432.628 709.137 431.511V431.511Z" fill="#2F2E41"/>
<path d="M686.503 393.556L685.804 412.107C685.788 412.534 685.789 412.976 685.807 413.401C685.825 413.826 685.859 414.224 685.907 414.565C685.956 414.907 686.017 415.184 686.086 415.376C686.156 415.569 686.232 415.673 686.31 415.68L693.176 416.304C693.253 416.311 693.33 416.221 693.401 416.042C693.471 415.862 693.534 415.597 693.584 415.265C693.634 414.933 693.671 414.543 693.691 414.122C693.712 413.701 693.715 413.26 693.702 412.831L693.101 393.656C693.08 392.971 693.016 392.351 692.922 391.904C692.827 391.456 692.707 391.211 692.584 391.211H687.016C686.896 391.211 686.779 391.444 686.686 391.871C686.592 392.298 686.528 392.893 686.503 393.556V393.556Z" fill="#2F2E41"/>
<path d="M705.208 399.743C705.208 399.743 684.441 376.128 680.369 388.673C678.333 394.946 679.351 401.034 680.878 405.554C682.295 409.67 684.33 412.97 686.743 415.068L703.58 430L709.688 418.192L705.616 411.551L705.208 399.743Z" fill="#2F2E41"/>
<path d="M694.925 396.648C694.925 396.648 722.467 382.813 717.042 409.028C711.617 435.244 691.17 425.049 691.17 425.049L689.083 414.125L696.177 405.387L694.925 396.648Z" fill="#2F2E41"/>
<path d="M700.281 321C707.455 321 713.271 312.941 713.271 303C713.271 293.059 707.455 285 700.281 285C693.107 285 687.292 293.059 687.292 303C687.292 312.941 693.107 321 700.281 321Z" fill="#FFB8B8"/>
<path d="M701.59 399C697.518 398.886 693.466 397.897 689.516 396.054L689.399 395.995L683.93 349.405C683.438 345.311 683.772 341.025 684.87 337.356C685.968 333.688 687.753 330.891 689.889 329.493C696.485 325.11 703.675 324.845 710.361 328.736H710.361C712.604 330.075 714.493 332.931 715.649 336.734C716.806 340.537 717.145 345.008 716.6 349.254L710.491 395.956L710.405 396.032C707.867 398.259 704.692 399 701.59 399Z" fill="#CCCCCC"/>
<path d="M687.932 402.948C687.998 401.925 688.102 400.995 688.238 400.223C688.374 399.452 688.538 398.858 688.72 398.483C688.901 398.109 689.094 397.962 689.287 398.055C689.479 398.147 689.665 398.476 689.833 399.018L693.376 381.691L693.697 395.308L690.283 409.675C690.102 411.198 689.829 412.296 689.515 412.76C689.201 413.224 688.867 413.022 688.577 412.193C688.287 411.364 688.062 409.965 687.943 408.261C687.824 406.557 687.82 404.666 687.932 402.948V402.948Z" fill="#FFB8B8"/>
<path d="M698.686 406C698.448 406 698.21 405.952 697.981 405.859C697.61 405.713 697.27 405.447 696.99 405.085C696.71 404.724 696.498 404.276 696.371 403.78L694.6 396.965C694.434 396.336 694.413 395.652 694.54 395.006C694.666 394.359 694.934 393.78 695.308 393.345L715.297 377.046L707.417 329.299L707.618 329.234C707.699 329.206 715.772 326.71 719.08 338.693C721.397 347.085 729.97 365.333 729.365 377.664C729.25 380.13 728.527 382.472 727.311 384.311C726.096 386.15 724.46 387.38 722.667 387.8L700.167 405.31C699.743 405.756 699.222 405.999 698.686 406Z" fill="#CCCCCC"/>
<path d="M691.853 401.325C691.788 400.302 691.683 399.372 691.547 398.601C691.411 397.829 691.247 397.235 691.066 396.861C690.884 396.486 690.691 396.34 690.498 396.432C690.306 396.525 690.12 396.854 689.952 397.396L686.409 380.069L686.089 393.685L689.502 408.052C689.683 409.575 689.956 410.673 690.27 411.137C690.585 411.601 690.918 411.4 691.208 410.571C691.498 409.741 691.723 408.342 691.842 406.638C691.961 404.934 691.965 403.044 691.853 401.325V401.325Z" fill="#FFB8B8"/>
<path d="M697.207 404C696.761 403.999 696.327 403.756 695.974 403.31L675.872 387.277C674.379 386.856 673.016 385.627 672.003 383.788C670.991 381.949 670.388 379.607 670.292 377.14C669.789 364.81 678.289 345.085 680.218 336.693C682.974 324.711 689.699 327.206 689.767 327.234L689.934 327.3L682.012 376.523L700.021 391.345C700.333 391.78 700.556 392.359 700.661 393.006C700.767 393.652 700.749 394.336 700.611 394.965L699.136 401.78C699.03 402.276 698.853 402.724 698.62 403.085C698.387 403.447 698.104 403.713 697.794 403.859C697.604 403.952 697.406 404 697.207 404V404Z" fill="#CCCCCC"/>
<path d="M714.602 414H685.961C685.364 413.998 684.791 413.448 684.369 412.469C683.947 411.49 683.709 410.162 683.708 408.778V372.222C683.709 370.838 683.947 369.51 684.369 368.531C684.791 367.552 685.364 367.002 685.961 367H714.602C715.199 367.002 715.771 367.552 716.194 368.531C716.616 369.51 716.853 370.838 716.854 372.222V408.778C716.853 410.162 716.616 411.49 716.194 412.469C715.771 413.448 715.199 413.998 714.602 414V414Z" fill="#6C63FF"/>
<path d="M699.397 395.27C700.641 395.27 701.648 393.419 701.648 391.135C701.648 388.851 700.641 387 699.397 387C698.154 387 697.146 388.851 697.146 391.135C697.146 393.419 698.154 395.27 699.397 395.27Z" fill="white"/>
<path d="M687.547 302C686.691 299.132 688.095 295.714 690.179 294.325C692.262 292.936 694.776 293.2 697.005 294.116C698.878 294.885 700.633 296.078 702.46 297.02C704.262 298.074 706.229 298.537 708.195 298.369C710.144 298.078 712.084 296.634 712.882 294.268C713.708 291.814 713.146 288.82 711.873 286.727C710.519 284.702 708.766 283.214 706.809 282.428C702.512 280.428 697.548 280.369 693.559 283.276C689.569 286.183 686.858 292.372 687.683 298.29" fill="#2F2E41"/>
<path d="M668.289 406.241C668.451 396.399 668.899 386.774 669.615 377.75C669.814 375.239 670.034 372.783 670.274 370.382C670.286 370.256 670.288 370.109 670.282 369.972C670.275 369.835 670.259 369.718 670.237 369.646C670.215 369.574 670.189 369.552 670.164 369.586C670.14 369.62 670.119 369.706 670.105 369.827C669.233 378.571 668.623 388.063 668.297 397.923C668.207 400.676 668.139 403.449 668.093 406.241C668.082 406.946 668.277 406.941 668.289 406.241V406.241Z" fill="#E6E6E6"/>
<path d="M668.415 406.426C668.52 400.041 668.811 393.797 669.275 387.943C669.405 386.313 669.547 384.72 669.703 383.163C669.711 383.081 669.712 382.986 669.708 382.897C669.704 382.808 669.693 382.732 669.679 382.685C669.665 382.638 669.648 382.624 669.632 382.646C669.616 382.668 669.602 382.724 669.593 382.803C669.028 388.475 668.632 394.633 668.421 401.03C668.362 402.816 668.318 404.615 668.288 406.426C668.281 406.883 668.407 406.88 668.415 406.426H668.415Z" fill="#E6E6E6"/>
<path d="M668.255 406C667.641 400.601 667.188 394.67 666.916 388.445C666.84 386.712 666.778 384.962 666.731 383.195C666.728 383.103 666.719 383.022 666.706 382.967C666.693 382.912 666.676 382.888 666.66 382.9C666.644 382.913 666.629 382.96 666.619 383.033C666.608 383.105 666.604 383.198 666.605 383.29C666.779 389.722 667.139 395.95 667.67 401.725C667.819 403.337 667.981 404.908 668.155 406.439C668.199 406.825 668.299 406.384 668.255 406V406Z" fill="#E6E6E6"/>
<path d="M665.793 409.997V401.12C665.793 400.238 665.856 399.392 665.967 398.768C666.077 398.144 666.228 397.793 666.384 397.792H670.06C670.217 397.793 670.367 398.144 670.478 398.768C670.589 399.392 670.651 400.238 670.651 401.12V409.997C670.651 410.879 670.589 411.725 670.478 412.349C670.367 412.973 670.217 413.325 670.06 413.326H666.384C666.228 413.325 666.077 412.973 665.967 412.349C665.856 411.725 665.793 410.879 665.793 409.997V409.997Z" fill="#F2F2F2"/>
<path d="M679.229 414C679.229 419.049 676.422 421.343 672.958 421.343C669.495 421.343 666.688 419.049 666.688 414C666.688 408.952 668.081 403.061 672.958 405.092C677.836 402.045 679.229 408.952 679.229 414Z" fill="#FF6584"/>
<path d="M673.365 406.956C673.141 406.957 672.924 406.832 672.755 406.607C672.586 406.381 672.477 406.07 672.448 405.73C672.257 403.306 671.203 398.559 670.759 396.63C670.714 396.439 670.7 396.232 670.719 396.031C670.737 395.829 670.788 395.638 670.866 395.472C670.94 395.324 671.034 395.202 671.142 395.114C671.25 395.026 671.368 394.973 671.49 394.959C671.612 394.946 671.735 394.972 671.85 395.036C671.965 395.1 672.069 395.2 672.157 395.33C672.235 395.455 672.296 395.603 672.335 395.766C672.374 395.928 672.391 396.101 672.384 396.273C672.297 398.748 673.482 402.748 674.195 404.912C674.263 405.116 674.297 405.342 674.294 405.57C674.291 405.799 674.252 406.023 674.18 406.223C674.108 406.423 674.005 406.594 673.88 406.72C673.755 406.847 673.612 406.925 673.463 406.948C673.431 406.954 673.398 406.956 673.365 406.956Z" fill="#3F3D56"/>
<path d="M677.613 403.916C679.196 401.357 677.954 396.121 675.972 397.127C675.706 397.252 675.46 397.511 675.258 397.878C674.043 400.145 673.854 405.946 673.854 405.946C673.854 405.946 676.001 406.52 677.613 403.916Z" fill="#3F3D56"/>
<g clip-path="url(#clip0)">
<path d="M-63.518 445.706C-49.4576 458.212 -31.2363 458.84 -13.6235 457.303C-11.1641 457.089 -8.72208 456.838 -6.30271 456.566C-6.28809 456.562 -6.26889 456.563 -6.25404 456.559C-6.13777 456.545 -6.02127 456.531 -5.91002 456.523C-5.41066 456.466 -4.91106 456.408 -4.41638 456.35L-4.53324 456.625L-4.90002 457.48C-4.7682 457.194 -4.63651 456.914 -4.5047 456.628C-4.46592 456.542 -4.42246 456.456 -4.38392 456.371C0.178771 446.567 4.70415 436.404 5.85848 425.21C7.05164 413.591 3.69838 400.435 -4.58403 394.724C-5.67024 393.977 -6.82055 393.382 -8.01361 392.951C-8.50895 392.765 -9.01099 392.614 -9.51873 392.481C-12.625 391.629 -15.8589 391.814 -18.8879 393.017C-21.917 394.22 -24.6318 396.398 -26.7533 399.326C-28.8748 402.254 -30.3264 405.826 -30.9588 409.677C-31.5912 413.527 -31.3816 417.516 -30.3516 421.233C-37.3736 412.342 -36.0637 397.92 -33.6414 385.867C-31.2145 373.814 -28.2765 360.403 -33.2126 349.577C-35.9566 343.551 -40.7819 339.812 -46.1972 338.306C-46.3633 338.262 -46.5292 338.218 -46.6956 338.179C-53.1477 336.566 -59.8554 338.017 -65.4787 342.243C-75.8331 350.299 -81.1513 365.574 -82.8773 380.536C-85.6583 404.614 -79.5039 431.486 -63.518 445.706Z" fill="#F2F2F2"/>
<path d="M18.9881 259.317C27.8049 259.317 34.9523 250.492 34.9523 239.607C34.9523 228.721 27.8049 219.896 18.9881 219.896C10.1714 219.896 3.02399 228.721 3.02399 239.607C3.02399 250.492 10.1714 259.317 18.9881 259.317Z" fill="#2F2E41"/>
<path d="M20.3289 259.354C27.5472 259.354 33.3988 252.13 33.3988 243.217C33.3988 234.305 27.5472 227.081 20.3289 227.081C13.1106 227.081 7.25903 234.305 7.25903 243.217C7.25903 252.13 13.1106 259.354 20.3289 259.354Z" fill="#FFB8B8"/>
<path d="M70.1046 292.3C69.897 292.558 69.7062 292.835 69.534 293.13L43.16 291.98L40.1435 284.995L31.0107 289.238L35.3776 302.244C35.7304 303.294 36.3497 304.176 37.1426 304.755C37.9355 305.334 38.8591 305.58 39.7748 305.456L69.6196 301.41C70.313 302.518 71.2633 303.34 72.3441 303.765C73.4248 304.19 74.5849 304.199 75.6699 303.791C76.7548 303.382 77.7134 302.575 78.418 301.478C79.1226 300.38 79.5398 299.044 79.6142 297.646C79.6886 296.249 79.4166 294.856 78.8345 293.654C78.2523 292.452 77.3875 291.498 76.3552 290.917C75.3228 290.337 74.1719 290.158 73.0553 290.405C71.9387 290.652 70.9095 291.313 70.1046 292.3H70.1046Z" fill="#FFB8B8"/>
<path d="M27.4976 295.518C27.1615 295.332 26.8619 295.059 26.6192 294.716C26.3765 294.374 26.1965 293.972 26.0914 293.536L22.4179 278.313C21.6202 276.205 21.5321 273.793 22.1729 271.604C22.8137 269.416 24.1312 267.631 25.8364 266.64C27.5416 265.65 29.4954 265.534 31.2694 266.319C33.0435 267.105 34.4929 268.726 35.3001 270.829L42.4159 284.123C42.619 284.503 42.7534 284.932 42.8101 285.381C42.8668 285.831 42.8443 286.29 42.7443 286.727C42.6443 287.165 42.469 287.571 42.2305 287.918C41.992 288.264 41.6957 288.543 41.362 288.735L29.6322 295.499C29.2985 295.691 28.935 295.793 28.5666 295.796C28.1982 295.799 27.8336 295.705 27.4976 295.518V295.518Z" fill="#CCCCCC"/>
<path d="M53.4737 450.068L59.2038 446.217L49.8993 417.096L41.4426 422.78L53.4737 450.068Z" fill="#FFB8B8"/>
<path d="M50.994 448.74L62.2782 441.156L62.2786 441.156C63.223 440.521 64.2594 440.122 65.3286 439.982C66.3978 439.842 67.4789 439.963 68.5102 440.339C69.5415 440.714 70.5027 441.337 71.339 442.172C72.1754 443.006 72.8704 444.036 73.3844 445.202L73.5116 445.49L55.036 457.908L50.994 448.74Z" fill="#2F2E41"/>
<path d="M-11.2421 447.47L1.60578 447.469H1.6063C2.68152 447.469 3.74622 447.731 4.73961 448.239C5.73299 448.747 6.63561 449.491 7.39591 450.43C8.15622 451.369 8.75932 452.483 9.17079 453.71C9.58225 454.936 9.79404 456.251 9.79403 457.578V457.907L-11.2417 457.908L-11.2421 447.47Z" fill="#2F2E41"/>
<path d="M30.9615 312.207L33.0901 343.743L56.8334 431.688C56.9267 432.034 56.9608 432.4 56.9334 432.763C56.906 433.126 56.8177 433.478 56.6741 433.797C56.5306 434.115 56.3349 434.393 56.0996 434.614C55.8642 434.834 55.5943 434.991 55.307 435.076L48.03 437.215C47.564 437.352 47.0743 437.291 46.6399 437.041C46.2055 436.792 45.8519 436.369 45.6363 435.841L15.281 361.499C15.182 361.256 15.0247 361.058 14.8307 360.93C14.6367 360.803 14.4155 360.752 14.1975 360.786C13.9794 360.82 13.7752 360.937 13.6129 361.12C13.4506 361.303 13.3382 361.543 13.2911 361.808L-0.0675985 436.945C-0.171639 437.531 -0.434502 438.054 -0.812622 438.43C-1.19074 438.805 -1.66143 439.01 -2.14667 439.01H-8.91645C-9.19841 439.01 -9.47761 438.941 -9.73779 438.807C-9.99796 438.673 -10.2339 438.476 -10.4319 438.228C-10.6298 437.98 -10.7858 437.686 -10.8908 437.363C-10.9957 437.04 -11.0475 436.694 -11.0432 436.346C-10.4228 384.247 -12.4693 324.882 3.82245 315.492L6.48314 306.95L30.9615 312.207Z" fill="#2F2E41"/>
<path d="M5.71663 309.187L2.97316 288.703C2.51904 285.344 2.75721 281.897 3.66566 278.682C4.57412 275.466 6.12366 272.584 8.1714 270.303C10.173 268.043 12.6033 266.441 15.238 265.646C17.8728 264.851 20.6273 264.888 23.2476 265.753C23.4031 265.804 23.5587 265.858 23.7146 265.911C26.9387 267.051 29.8017 269.385 31.917 272.598C34.0322 275.811 35.2978 279.748 35.5428 283.878C36.0663 292.774 35.5978 305.68 30.3926 316.643L30.2915 316.856L5.71663 309.187Z" fill="#CCCCCC"/>
<path d="M33.331 234.641C30.3444 237.183 26.7994 238.535 23.1721 238.517C24.466 239.625 25.9391 240.373 27.4897 240.71C22.6669 241.988 17.6826 242.022 12.8485 240.812C11.7739 240.599 10.7371 240.16 9.78347 239.512C9.30826 239.185 8.8942 238.737 8.56826 238.199C8.24232 237.661 8.01178 237.044 7.89161 236.388C7.57038 234.123 9.00029 232.064 10.4863 230.677C12.7615 228.585 15.3848 227.144 18.1664 226.458C20.948 225.772 23.8184 225.857 26.5699 226.709C28.3665 227.282 30.1664 228.251 31.3334 230.032C32.5003 231.814 32.846 234.56 31.7342 236.395L33.331 234.641Z" fill="#2F2E41"/>
<path d="M18.7775 219.799C20.2926 212.246 14.8625 203.854 8.5616 204.011C2.16878 204.171 -2.53558 211.303 -5.76938 218.114C-9.00319 224.924 -12.2171 232.645 -18.1538 235.577C-20.1183 236.547 -22.2472 236.9 -24.3495 236.605C-26.4519 236.309 -28.4619 235.374 -30.1995 233.883C-31.9371 232.393 -33.3479 230.393 -34.3054 228.063C-35.2628 225.733 -35.7371 223.147 -35.6856 220.535C-36.4827 228.809 -35.3784 237.761 -31.0567 244.161C-26.7349 250.56 -18.6933 253.445 -12.9132 249.144C-9.61208 246.688 -7.50206 242.418 -5.76248 238.171C-4.0229 233.925 -2.47498 229.447 0.160858 225.975C2.7967 222.503 6.87237 220.198 10.5406 221.659C11.9967 222.239 13.303 223.369 14.8073 223.713C16.3117 224.057 18.2057 223.174 18.4112 221.303L18.7775 219.799Z" fill="#2F2E41"/>
<path d="M-12.7228 356.748C-13.2653 355.963 -13.6618 355.041 -13.8843 354.046C-14.1069 353.052 -14.1501 352.009 -14.011 350.992C-13.8718 349.974 -13.5537 349.007 -13.079 348.158C-12.6043 347.308 -11.9845 346.598 -11.2634 346.076L0.0740501 283.334L11.5749 289.162L-3.1858 349.003C-2.55656 350.557 -2.4108 352.342 -2.77616 354.019C-3.14152 355.697 -3.99261 357.151 -5.16816 358.106C-6.3437 359.06 -7.76203 359.449 -9.15439 359.199C-10.5468 358.949 -11.8164 358.077 -12.7228 356.748H-12.7228Z" fill="#FFB8B8"/>
<path d="M-4.41799 292.335C-4.59906 291.939 -4.70879 291.499 -4.73969 291.046C-4.77059 290.593 -4.72193 290.137 -4.59704 289.709L-0.237366 274.765C0.133719 272.484 1.22238 270.477 2.7899 269.185C4.35743 267.893 6.27589 267.422 8.12462 267.874C9.97335 268.326 11.6015 269.664 12.652 271.596C13.7025 273.528 14.0897 275.895 13.7286 278.179L13.0663 294.093C13.0474 294.548 12.9494 294.991 12.7791 295.395C12.6087 295.798 12.3699 296.151 12.0791 296.43C11.7882 296.709 11.452 296.907 11.0935 297.012C10.7349 297.116 10.3624 297.123 10.0013 297.034L-2.6905 293.883C-3.05171 293.793 -3.39304 293.609 -3.69117 293.342C-3.9893 293.074 -4.23721 292.731 -4.41799 292.335Z" fill="#CCCCCC"/>
<path d="M88.4719 285.298L88.2831 285.266L88.9943 278.878C89.1035 277.898 88.8927 276.904 88.4083 276.115C87.9239 275.326 87.2056 274.807 86.4114 274.673L75.4495 272.812C74.6553 272.677 73.8503 272.938 73.2115 273.536C72.5727 274.134 72.1525 275.021 72.0433 276.001L68.1415 311.047C68.0323 312.027 68.2431 313.021 68.7275 313.81C69.2119 314.598 69.9302 315.117 70.7244 315.252L81.6862 317.113C82.4804 317.247 83.2855 316.987 83.9242 316.389C84.563 315.791 84.9832 314.904 85.0924 313.923L87.7768 289.813L87.9657 289.845L88.4719 285.298Z" fill="#3F3D56"/>
<path d="M86.0669 276.547L84.7021 276.315C84.7438 276.516 84.7448 276.726 84.7051 276.927C84.6654 277.128 84.5862 277.314 84.4746 277.469C84.3629 277.624 84.2221 277.742 84.0647 277.813C83.9073 277.885 83.738 277.908 83.5718 277.88L77.5818 276.863C77.4156 276.835 77.2576 276.756 77.1217 276.635C76.9858 276.514 76.8761 276.353 76.8024 276.167C76.7286 275.981 76.6931 275.775 76.6988 275.568C76.7046 275.361 76.7515 275.159 76.8354 274.98L75.5607 274.764C75.2806 274.716 74.9956 274.737 74.7221 274.825C74.4485 274.914 74.1918 275.068 73.9665 275.279C73.7412 275.49 73.5517 275.754 73.4089 276.055C73.2662 276.356 73.1729 276.689 73.1343 277.035L69.418 310.414C69.3795 310.76 69.3965 311.112 69.4682 311.45C69.5398 311.787 69.6646 312.104 69.8354 312.382C70.0063 312.661 70.2198 312.895 70.4639 313.071C70.708 313.247 70.9778 313.362 71.2579 313.41L81.7641 315.193C82.3298 315.289 82.9032 315.104 83.3583 314.678C83.8133 314.252 84.1126 313.62 84.1904 312.921V312.921L87.9068 279.542C87.9845 278.844 87.8344 278.136 87.4893 277.574C87.1443 277.012 86.6326 276.643 86.0669 276.547L86.0669 276.547Z" fill="white"/>
<path d="M78.6157 304.259C81.8486 304.259 84.4693 301.024 84.4693 297.032C84.4693 293.041 81.8486 289.805 78.6157 289.805C75.3829 289.805 72.7622 293.041 72.7622 297.032C72.7622 301.024 75.3829 304.259 78.6157 304.259Z" fill="#6C63FF"/>
<path d="M78.0355 299.789C77.9038 299.789 77.7756 299.737 77.6702 299.639L77.6637 299.633L76.2881 298.333C76.2241 298.273 76.1703 298.197 76.1299 298.112C76.0895 298.026 76.0632 297.931 76.0525 297.833C76.0419 297.734 76.047 297.634 76.0677 297.538C76.0884 297.442 76.1242 297.352 76.1731 297.273C76.222 297.195 76.2831 297.129 76.3527 297.079C76.4224 297.029 76.4992 296.997 76.579 296.984C76.6587 296.971 76.7397 296.978 76.8174 297.004C76.895 297.03 76.9678 297.074 77.0314 297.135L77.9225 297.978L80.0281 294.588C80.0769 294.509 80.1378 294.443 80.2073 294.394C80.2768 294.344 80.3535 294.312 80.4331 294.299C80.5127 294.286 80.5935 294.293 80.671 294.318C80.7486 294.344 80.8213 294.388 80.885 294.448L80.8719 294.47L80.8853 294.449C81.0138 294.57 81.0978 294.75 81.119 294.949C81.1402 295.147 81.0969 295.348 80.9984 295.507L78.5217 299.495C78.4644 299.586 78.3907 299.661 78.3064 299.712C78.2221 299.763 78.1294 299.789 78.0355 299.789Z" fill="white"/>
<path d="M132.565 458H-70.18C-70.3211 458 -70.4564 457.931 -70.5562 457.808C-70.656 457.684 -70.7121 457.517 -70.7121 457.343C-70.7121 457.169 -70.656 457.002 -70.5562 456.878C-70.4564 456.755 -70.3211 456.686 -70.18 456.686H132.565C132.706 456.686 132.841 456.755 132.941 456.878C133.041 457.002 133.097 457.169 133.097 457.343C133.097 457.517 133.041 457.684 132.941 457.808C132.841 457.931 132.706 458 132.565 458Z" fill="#3F3D56"/>
</g>
<path d="M1 66.6096V8H763V66.6096C674.334 59.0956 352.367 -22.6863 259.498 86.3145C142.714 223.385 25.3417 129.873 1 66.6096Z" fill="#828AEE" stroke="#828AEE"/>
<path d="M1 30.8056V1H763V59.083C674.334 51.6364 359.495 -33.4306 254.382 72.4306C132.854 194.824 11.5907 93.5 1 30.8056Z" fill="#5E68E4" stroke="#5E68E4"/>
<defs>
<clipPath id="clip0">
<rect width="122" height="431" fill="white" transform="translate(1 27)"/>
</clipPath>
</defs>
</svg>

