<svg width="771" height="470" viewBox="0 10 771 470" fill="none" xmlns="http://www.w3.org/2000/svg">
<path d="M591 245C634.078 245 669 192.841 669 128.5C669 64.1588 634.078 12 591 12C547.922 12 513 64.1588 513 128.5C513 192.841 547.922 245 591 245Z" fill="#F2F2F2"/>
<path d="M649.844 47C666.241 107.372 648.44 177.235 610.084 203.044C580.243 223.124 545.588 210.953 524 172.812C540.395 233.186 584.781 261.208 623.137 235.402C661.494 209.596 679.297 139.733 662.902 79.3597C659.816 67.8423 655.417 56.9433 649.844 47Z" fill="#E6E6E6"/>
<path d="M591.5 73H591.947L600 470H583L591.5 73Z" fill="#CCCCCC"/>
<path d="M621.983 272.126L616.425 267.808L603.713 275.826L591 283.844L596.558 288.163L621.983 272.126Z" fill="#CCCCCC"/>
<path d="M162 277C206.183 277 242 233.124 242 179C242 124.876 206.183 81 162 81C117.817 81 82 124.876 82 179C82 233.124 117.817 277 162 277Z" fill="#F2F2F2"/>
<path d="M219.447 110C236.184 160.92 218.015 219.845 178.865 241.613C148.407 258.549 113.035 248.284 91 216.114C107.734 267.035 153.038 290.67 192.188 268.905C231.339 247.139 249.51 188.214 232.776 137.293C229.626 127.579 225.136 118.386 219.447 110Z" fill="#E6E6E6"/>
<path d="M158 123H158.368L165 457H151L158 123Z" fill="#CCCCCC"/>
<path d="M184.037 299.148L179.366 295.519L168.683 302.257L158 308.995L162.671 312.625L184.037 299.148Z" fill="#CCCCCC"/>
<path d="M71.5 301C115.407 301 151 234.962 151 153.5C151 72.038 115.407 6 71.5 6C27.5934 6 -8 72.038 -8 153.5C-8 234.962 27.5934 301 71.5 301Z" fill="#F2F2F2"/>
<path d="M130.655 65C148.07 137.568 129.164 221.545 88.4274 252.568C56.7341 276.704 19.9282 262.075 -3 216.229C14.4129 288.799 61.5531 322.482 102.291 291.463C143.028 260.443 161.936 176.467 144.524 103.897C141.243 90.047 136.572 76.9455 130.655 65Z" fill="#E6E6E6"/>
<path d="M65.9995 55H66.3675L73 457H59L65.9995 55Z" fill="#CCCCCC"/>
<path d="M89.9901 357.659L70.3564 370.043L73.0926 376.269L92.7262 363.885L89.9901 357.659Z" fill="#CCCCCC"/>
<path d="M387 303C425.108 303 456 236.962 456 155.5C456 74.038 425.108 8 387 8C348.892 8 318 74.038 318 155.5C318 236.962 348.892 303 387 303Z" fill="#F2F2F2"/>
<path d="M438.297 67C453.45 139.568 437 223.545 401.554 254.568C373.976 278.704 341.95 264.075 322 218.229C337.151 290.799 378.17 324.482 413.617 293.463C449.063 262.443 465.516 178.467 450.365 105.897C447.51 92.047 443.446 78.9455 438.297 67Z" fill="#E6E6E6"/>
<path d="M382 57H382.315L388 459H376L382 57Z" fill="#CCCCCC"/>
<path d="M403.048 359.659L386.007 372.043L388.382 378.269L405.423 365.885L403.048 359.659Z" fill="#CCCCCC"/>
<path d="M301.281 317C308.95 317 315.167 308.046 315.167 297C315.167 285.954 308.95 277 301.281 277C293.613 277 287.396 285.954 287.396 297C287.396 308.046 293.613 317 301.281 317Z" fill="#2F2E41"/>
<path d="M284.976 425L284.708 416.184L302.23 410L302.625 423.013L284.976 425Z" fill="#FFB8B8"/>
<path d="M284.982 408.993L285.163 426.453L283.212 427.095L282.917 398.643C283.173 398.558 283.43 398.759 283.672 399.233C283.915 399.708 284.138 400.447 284.33 401.408C284.522 402.369 284.678 403.534 284.79 404.835C284.902 406.137 284.967 407.549 284.982 408.993Z" fill="#2F2E41"/>
<path d="M313.375 425.046L308.582 432L283.812 413.263L290.885 403L313.375 425.046Z" fill="#FFB8B8"/>
<path d="M310.137 430.511L312.108 417L313.618 423.992L310.406 446.011C310.208 445.092 310.043 443.963 309.923 442.687C309.802 441.411 309.727 440.014 309.702 438.575C309.677 437.135 309.702 435.683 309.777 434.299C309.852 432.916 309.974 431.628 310.137 430.511Z" fill="#2F2E41"/>
<path d="M287.503 392.556L286.804 411.107C286.788 411.534 286.789 411.976 286.807 412.401C286.825 412.826 286.859 413.224 286.907 413.565C286.956 413.907 287.017 414.184 287.086 414.376C287.156 414.569 287.232 414.673 287.31 414.68L294.176 415.304C294.253 415.311 294.33 415.221 294.401 415.042C294.471 414.862 294.534 414.597 294.584 414.265C294.634 413.933 294.671 413.543 294.691 413.122C294.712 412.701 294.715 412.26 294.702 411.831L294.101 392.656C294.08 391.971 294.016 391.351 293.922 390.904C293.827 390.456 293.707 390.211 293.584 390.211H288.016C287.896 390.211 287.779 390.444 287.686 390.871C287.592 391.298 287.528 391.893 287.503 392.556Z" fill="#2F2E41"/>
<path d="M306.208 398.743C306.208 398.743 285.441 375.128 281.369 387.673C279.333 393.946 280.351 400.034 281.878 404.554C283.295 408.67 285.33 411.97 287.743 414.068L304.58 429L310.688 417.192L306.616 410.551L306.208 398.743Z" fill="#2F2E41"/>
<path d="M295.925 395.648C295.925 395.648 323.467 381.813 318.042 408.028C312.617 434.244 292.17 424.049 292.17 424.049L290.083 413.125L297.177 404.387L295.925 395.648Z" fill="#2F2E41"/>
<path d="M301.281 320C308.455 320 314.271 311.941 314.271 302C314.271 292.059 308.455 284 301.281 284C294.107 284 288.292 292.059 288.292 302C288.292 311.941 294.107 320 301.281 320Z" fill="#FFB8B8"/>
<path d="M302.59 398C298.518 397.886 294.466 396.897 290.516 395.054L290.399 394.995L284.93 348.405C284.438 344.311 284.772 340.025 285.87 336.356C286.968 332.688 288.753 329.891 290.889 328.493C297.485 324.11 304.675 323.845 311.361 327.736H311.361C313.604 329.075 315.493 331.931 316.649 335.734C317.806 339.537 318.145 344.008 317.6 348.254L311.491 394.956L311.405 395.032C308.866 397.259 305.692 398 302.59 398Z" fill="#CCCCCC"/>
<path d="M288.932 401.948C288.998 400.925 289.102 399.995 289.238 399.223C289.374 398.452 289.538 397.858 289.72 397.483C289.901 397.109 290.094 396.962 290.287 397.055C290.479 397.147 290.665 397.476 290.833 398.018L294.376 380.691L294.697 394.308L291.283 408.675C291.102 410.198 290.829 411.296 290.515 411.76C290.201 412.224 289.867 412.022 289.577 411.193C289.287 410.364 289.062 408.965 288.943 407.261C288.824 405.557 288.82 403.666 288.932 401.948Z" fill="#FFB8B8"/>
<path d="M299.686 405C299.447 405 299.21 404.952 298.981 404.859C298.61 404.713 298.27 404.447 297.99 404.085C297.71 403.724 297.498 403.276 297.371 402.78L295.6 395.965C295.434 395.336 295.413 394.652 295.54 394.006C295.666 393.359 295.934 392.78 296.308 392.345L316.297 376.046L308.417 328.299L308.618 328.234C308.699 328.206 316.772 325.71 320.08 337.693C322.397 346.085 330.97 364.333 330.365 376.664C330.25 379.13 329.527 381.472 328.311 383.311C327.096 385.15 325.46 386.38 323.667 386.8L301.167 404.31C300.743 404.756 300.222 404.999 299.686 405Z" fill="#CCCCCC"/>
<path d="M292.853 400.325C292.788 399.302 292.683 398.372 292.547 397.601C292.411 396.829 292.247 396.235 292.066 395.861C291.884 395.486 291.691 395.34 291.498 395.432C291.306 395.525 291.12 395.854 290.952 396.396L287.409 379.069L287.089 392.685L290.502 407.052C290.683 408.575 290.956 409.673 291.27 410.137C291.585 410.601 291.918 410.4 292.208 409.571C292.498 408.741 292.723 407.342 292.842 405.638C292.961 403.934 292.965 402.044 292.853 400.325Z" fill="#FFB8B8"/>
<path d="M298.207 403C297.761 402.999 297.327 402.756 296.974 402.31L276.872 386.277C275.379 385.856 274.016 384.627 273.003 382.788C271.991 380.949 271.388 378.607 271.292 376.14C270.788 363.81 279.289 344.085 281.218 335.693C283.974 323.711 290.699 326.206 290.767 326.234L290.934 326.3L283.012 375.523L301.021 390.345C301.333 390.78 301.556 391.359 301.661 392.006C301.767 392.652 301.749 393.336 301.611 393.965L300.136 400.78C300.03 401.276 299.853 401.724 299.62 402.085C299.387 402.447 299.104 402.713 298.794 402.859C298.604 402.952 298.406 403 298.207 403Z" fill="#CCCCCC"/>
<path d="M315.602 413H286.961C286.364 412.998 285.791 412.448 285.369 411.469C284.947 410.49 284.709 409.162 284.708 407.778V371.222C284.709 369.838 284.947 368.51 285.369 367.531C285.791 366.552 286.364 366.002 286.961 366H315.602C316.199 366.002 316.771 366.552 317.194 367.531C317.616 368.51 317.853 369.838 317.854 371.222V407.778C317.853 409.162 317.616 410.49 317.194 411.469C316.771 412.448 316.199 412.998 315.602 413Z" fill="#6C63FF"/>
<path d="M300.397 394.27C301.64 394.27 302.648 392.419 302.648 390.135C302.648 387.851 301.64 386 300.397 386C299.154 386 298.146 387.851 298.146 390.135C298.146 392.419 299.154 394.27 300.397 394.27Z" fill="white"/>
<path d="M288.547 301C287.691 298.132 289.095 294.714 291.179 293.325C293.262 291.936 295.776 292.2 298.005 293.116C299.878 293.885 301.633 295.078 303.46 296.02C305.262 297.074 307.229 297.537 309.195 297.369C311.144 297.078 313.084 295.634 313.882 293.268C314.708 290.814 314.146 287.82 312.873 285.727C311.519 283.702 309.766 282.214 307.809 281.428C303.512 279.428 298.548 279.369 294.559 282.276C290.569 285.183 287.858 291.372 288.683 297.29" fill="#2F2E41"/>
<path d="M269.289 405.241C269.451 395.399 269.899 385.774 270.615 376.75C270.814 374.239 271.034 371.783 271.274 369.382C271.286 369.256 271.288 369.109 271.282 368.972C271.275 368.835 271.259 368.718 271.237 368.646C271.215 368.574 271.189 368.552 271.164 368.586C271.14 368.62 271.119 368.706 271.105 368.827C270.233 377.571 269.623 387.063 269.297 396.923C269.207 399.676 269.139 402.449 269.093 405.241C269.082 405.946 269.277 405.941 269.289 405.241Z" fill="#E6E6E6"/>
<path d="M269.415 405.426C269.52 399.041 269.811 392.797 270.275 386.943C270.405 385.313 270.547 383.72 270.703 382.163C270.711 382.081 270.712 381.986 270.708 381.897C270.704 381.808 270.693 381.732 270.679 381.685C270.665 381.638 270.648 381.624 270.632 381.646C270.616 381.668 270.602 381.724 270.593 381.803C270.028 387.475 269.632 393.633 269.421 400.03C269.362 401.816 269.318 403.615 269.288 405.426C269.281 405.883 269.408 405.88 269.415 405.426H269.415Z" fill="#E6E6E6"/>
<path d="M269.255 405C268.641 399.601 268.188 393.67 267.916 387.445C267.84 385.712 267.778 383.962 267.731 382.195C267.728 382.103 267.719 382.022 267.706 381.967C267.693 381.912 267.676 381.888 267.66 381.9C267.644 381.913 267.629 381.96 267.619 382.033C267.608 382.105 267.604 382.198 267.605 382.29C267.779 388.722 268.138 394.95 268.67 400.725C268.819 402.337 268.981 403.908 269.155 405.439C269.199 405.825 269.299 405.384 269.255 405Z" fill="#E6E6E6"/>
<path d="M266.793 408.997V400.12C266.794 399.238 266.856 398.392 266.967 397.768C267.077 397.144 267.228 396.793 267.384 396.792H271.061C271.217 396.793 271.367 397.144 271.478 397.768C271.589 398.392 271.651 399.238 271.651 400.12V408.997C271.651 409.879 271.589 410.725 271.478 411.349C271.367 411.973 271.217 412.325 271.061 412.326H267.384C267.228 412.325 267.077 411.973 266.967 411.349C266.856 410.725 266.794 409.879 266.793 408.997Z" fill="#F2F2F2"/>
<path d="M280.229 413C280.229 418.049 277.422 420.343 273.958 420.343C270.495 420.343 267.688 418.049 267.688 413C267.688 407.952 269.081 402.061 273.958 404.092C278.836 401.045 280.229 407.952 280.229 413Z" fill="#FF6584"/>
<path d="M274.365 405.956C274.141 405.957 273.924 405.832 273.755 405.607C273.586 405.381 273.477 405.07 273.448 404.73C273.257 402.306 272.203 397.559 271.759 395.63C271.714 395.439 271.7 395.232 271.719 395.031C271.737 394.829 271.788 394.638 271.866 394.472C271.94 394.324 272.034 394.202 272.142 394.114C272.25 394.026 272.368 393.973 272.49 393.959C272.612 393.946 272.735 393.972 272.85 394.036C272.965 394.1 273.069 394.2 273.157 394.33C273.235 394.455 273.296 394.603 273.335 394.766C273.374 394.928 273.391 395.101 273.384 395.273C273.297 397.748 274.481 401.748 275.195 403.912C275.263 404.116 275.296 404.342 275.294 404.57C275.291 404.799 275.252 405.023 275.18 405.223C275.108 405.423 275.005 405.594 274.88 405.72C274.755 405.847 274.612 405.925 274.463 405.948C274.431 405.954 274.398 405.956 274.365 405.956Z" fill="#3F3D56"/>
<path d="M278.613 402.916C280.196 400.357 278.954 395.121 276.972 396.127C276.706 396.252 276.46 396.511 276.258 396.878C275.043 399.145 274.854 404.946 274.854 404.946C274.854 404.946 277.001 405.52 278.613 402.916Z" fill="#3F3D56"/>
<path d="M1 70.6096V12H770V70.6096C680.519 63.0956 355.594 -18.6863 261.873 90.3145C144.016 227.385 25.5653 133.873 1 70.6096Z" fill="#828AEE" stroke="#828AEE"/>
<g clip-path="url(#clip0)">
<path d="M728.283 389.287L716.853 378.591L711.433 373.58C710.922 373.107 710.53 372.52 710.289 371.867C710.048 371.214 709.965 370.512 710.047 369.821C710.129 369.129 710.373 368.467 710.76 367.888C711.146 367.309 711.664 366.83 712.271 366.49V366.49C712.807 366.191 713.399 366.006 714.011 365.95C714.622 365.894 715.238 365.966 715.82 366.163C716.401 366.359 716.935 366.676 717.388 367.092C717.84 367.508 718.2 368.014 718.445 368.578L720.228 372.679L731.3 384.19L728.283 389.287Z" fill="#FFB9B9"/>
<path d="M729.777 382.349L725.763 389.051L742.058 399.07C756.424 388.719 759.268 385.351 755.748 368.864L752.948 366.058L739.412 388.064L729.777 382.349Z" fill="#6C63FF"/>
<path d="M706.114 363.716C705.953 363.557 705.742 363.458 705.517 363.436C705.293 363.414 705.067 363.47 704.878 363.594L697.332 368.521C697.208 368.602 697.104 368.709 697.027 368.836C696.95 368.962 696.902 369.105 696.887 369.252C696.872 369.4 696.889 369.549 696.939 369.688C696.989 369.828 697.069 369.955 697.174 370.059L716.364 389.211C716.457 389.304 716.568 389.378 716.69 389.428C716.811 389.477 716.942 389.502 717.074 389.501C717.205 389.5 717.335 389.472 717.456 389.42C717.577 389.368 717.686 389.292 717.778 389.198L724.067 382.673C724.248 382.484 724.348 382.23 724.344 381.968C724.341 381.705 724.233 381.454 724.046 381.27L706.114 363.716Z" fill="#3F3D56"/>
<path d="M698.819 369.048L699.6 368.549C699.518 368.696 699.487 368.866 699.514 369.032C699.541 369.199 699.623 369.351 699.747 369.465C699.871 369.578 700.03 369.646 700.198 369.658C700.366 369.669 700.532 369.623 700.671 369.528L705.724 366.046C705.839 365.966 705.929 365.857 705.985 365.729C706.041 365.601 706.059 365.46 706.039 365.321C706.018 365.183 705.96 365.054 705.869 364.947C705.779 364.841 705.66 364.762 705.528 364.72L705.93 364.463C705.982 364.43 706.044 364.415 706.106 364.422C706.167 364.429 706.224 364.457 706.268 364.501L723.268 381.247C723.293 381.273 723.313 381.303 723.327 381.337C723.34 381.37 723.347 381.406 723.346 381.443C723.345 381.479 723.338 381.514 723.323 381.547C723.308 381.581 723.287 381.61 723.261 381.635L717.087 387.665C717.036 387.714 716.968 387.74 716.898 387.739C716.827 387.738 716.76 387.71 716.71 387.66L698.773 369.469C698.745 369.44 698.723 369.405 698.709 369.367C698.696 369.329 698.691 369.288 698.695 369.247C698.7 369.207 698.713 369.168 698.734 369.133C698.756 369.099 698.785 369.07 698.819 369.048V369.048Z" fill="white"/>
<path d="M718.439 377.549L713.224 382.478L700.82 370.194L707.115 366.086L718.439 377.549Z" fill="#6C63FF"/>
<path d="M701.302 373.225C701.336 373.191 701.355 373.145 701.355 373.098C701.355 373.05 701.336 373.004 701.302 372.97L700.217 371.882C700.183 371.849 700.137 371.831 700.09 371.831C700.042 371.831 699.997 371.849 699.962 371.882C699.928 371.916 699.909 371.962 699.909 372.01C699.909 372.058 699.928 372.104 699.962 372.138L701.047 373.225C701.081 373.258 701.127 373.277 701.175 373.277C701.222 373.277 701.268 373.258 701.302 373.225Z" fill="#E6E6E6"/>
<path d="M703.13 374.801L702.045 373.714C702.028 373.697 702.008 373.684 701.986 373.675C701.964 373.666 701.941 373.661 701.917 373.661C701.893 373.661 701.87 373.666 701.848 373.675C701.826 373.684 701.806 373.697 701.79 373.714C701.773 373.731 701.759 373.751 701.75 373.773C701.741 373.795 701.737 373.818 701.737 373.842C701.737 373.866 701.741 373.889 701.75 373.911C701.759 373.933 701.773 373.953 701.79 373.97L702.874 375.057C702.908 375.091 702.954 375.11 703.002 375.11C703.05 375.11 703.096 375.091 703.13 375.057C703.163 375.023 703.182 374.977 703.182 374.929C703.182 374.881 703.163 374.835 703.13 374.801V374.801Z" fill="#E6E6E6"/>
<path d="M718.319 383.001C718.992 383.001 719.537 382.454 719.537 381.78C719.537 381.106 718.992 380.559 718.319 380.559C717.646 380.559 717.101 381.106 717.101 381.78C717.101 382.454 717.646 383.001 718.319 383.001Z" fill="#6C63FF"/>
<path d="M640.034 421.711L633.846 423.349C632.966 425.089 631.464 426.432 629.64 427.11C627.815 427.787 625.803 427.749 624.005 427.004L623.869 426.948C623.049 426.596 622.284 426.128 621.598 425.558C618.999 423.445 614.668 422.355 608.925 422.099C608.573 421.988 608.268 421.763 608.057 421.459C607.847 421.155 607.743 420.79 607.763 420.42V420.42C607.783 420.031 607.939 419.661 608.203 419.375C608.467 419.089 608.823 418.904 609.209 418.854L640.175 414.805L640.034 421.711Z" fill="#E6E6E6"/>
<path d="M720.321 427.208C704.13 424.605 689.381 420.393 677.014 413.518L638.628 422.961L638.769 414.524L668.773 403.975C673.835 402.195 679.214 401.506 684.56 401.953L720.321 408.604L720.321 427.208Z" fill="#2F2E41"/>
<path d="M658.595 430.594C658.473 430.186 658.486 429.75 658.632 429.35C658.778 428.95 659.049 428.608 659.404 428.375L673.92 420.725L677.436 411.564L683.482 415.37L681.794 422.135L682.193 424.934C682.319 425.812 682.254 426.707 682.004 427.558C681.754 428.408 681.325 429.196 680.745 429.866C680.165 430.536 679.449 431.073 678.644 431.441C677.839 431.81 676.964 432 676.079 432H660.481C660.057 432 659.645 431.863 659.306 431.61C658.966 431.357 658.717 431 658.595 430.594V430.594Z" fill="#E6E6E6"/>
<path d="M739.865 421.993C722.335 443.84 710.273 420.045 698.386 394.792L684.044 418.188L675.327 411.987L690.359 378.838C690.73 378.02 691.289 377.302 691.991 376.743C692.693 376.184 693.518 375.8 694.397 375.623C695.276 375.446 696.184 375.481 697.047 375.724C697.91 375.968 698.703 376.413 699.361 377.024L720.321 400.43L724.258 400.148L739.865 421.993Z" fill="#2F2E41"/>
<path d="M740.849 359.558C746.596 359.558 751.254 354.889 751.254 349.129C751.254 343.369 746.596 338.699 740.849 338.699C735.103 338.699 730.444 343.369 730.444 349.129C730.444 354.889 735.103 359.558 740.849 359.558Z" fill="#FFB9B9"/>
<path d="M754.066 367.732L742.536 370.269C741.43 365.51 739.827 360.881 737.756 356.457L748.442 352.511C749.755 357.776 751.641 362.88 754.066 367.732Z" fill="#FFB9B9"/>
<path d="M740.849 424.671L720.321 400.43L728.68 386.503C729.56 380.238 732.788 375.313 737.756 371.382L741.13 365.759L751.254 361.531C754.809 364.365 757.335 368.292 758.446 372.706C759.556 377.121 759.189 381.779 757.399 385.963L740.849 424.671Z" fill="#6C63FF"/>
<path d="M723.133 397.893L710.759 388.309L704.898 383.825C704.345 383.403 703.9 382.855 703.6 382.227C703.3 381.599 703.152 380.908 703.169 380.212C703.186 379.516 703.368 378.833 703.699 378.221C704.03 377.609 704.501 377.084 705.074 376.689C705.58 376.34 706.153 376.102 706.756 375.989C707.36 375.875 707.98 375.89 708.577 376.032C709.175 376.173 709.736 376.439 710.225 376.811C710.714 377.183 711.119 377.653 711.416 378.192L713.572 382.108L725.664 392.538L723.133 397.893Z" fill="#FFB9B9"/>
<path d="M723.976 390.846L720.602 397.893L737.756 406.349C751.099 394.705 758.538 383.538 753.504 367.451L747.036 369.142L734.1 395.638L723.976 390.846Z" fill="#6C63FF"/>
<path d="M754.357 337.109C756.645 337.109 758.5 335.25 758.5 332.957C758.5 330.663 756.645 328.804 754.357 328.804C752.069 328.804 750.214 330.663 750.214 332.957C750.214 335.25 752.069 337.109 754.357 337.109Z" fill="#2F2E41"/>
<path d="M750.088 331.94C750.156 330.887 750.623 329.899 751.392 329.178C752.161 328.457 753.176 328.057 754.229 328.059C754.144 328.048 754.059 328.035 753.972 328.029C752.875 327.959 751.796 328.327 750.97 329.055C750.145 329.782 749.642 330.808 749.572 331.907C749.501 333.006 749.869 334.088 750.594 334.915C751.32 335.742 752.343 336.246 753.44 336.317C753.527 336.323 753.613 336.321 753.699 336.321C752.654 336.188 751.699 335.661 751.028 334.847C750.357 334.033 750.021 332.994 750.088 331.94V331.94Z" fill="#2F2E41"/>
<path d="M750.065 333.713C746.37 330.641 735.773 334.546 735.089 336.611C730.093 337.294 726.31 340.215 726.31 345.411V345.411C729.281 346.63 732.659 346.48 736.311 345.411C742.132 350.166 742.531 356.144 738.991 363.01L743.347 363.097L748.745 355.188L749.004 363.211L758.987 363.01V351.513C759.02 347.69 758.142 343.915 756.427 340.501C754.871 337.471 752.457 335.702 750.065 333.713Z" fill="#2F2E41"/>
<path d="M740.768 354.026C741.862 354.026 742.749 352.781 742.749 351.246C742.749 349.71 741.862 348.466 740.768 348.466C739.674 348.466 738.787 349.71 738.787 351.246C738.787 352.781 739.674 354.026 740.768 354.026Z" fill="#FFB8B8"/>
<path d="M551.37 295.504H550.748V297.375H551.37V295.504Z" fill="#E6E6E6"/>
<path d="M551.37 300.784H550.748V304.194H551.37V300.784Z" fill="#E6E6E6"/>
<path d="M551.37 307.603H550.748V309.473H551.37V307.603Z" fill="#E6E6E6"/>
<path d="M612.025 269.296H611.403V271.167H612.025V269.296Z" fill="#E6E6E6"/>
<path d="M612.025 302.723H611.403V298.778H612.025V302.723ZM612.025 294.834H611.403V290.889H612.025V294.834ZM612.025 286.945H611.403V283H612.025V286.945ZM612.025 279.056H611.403V275.111H612.025V279.056Z" fill="#E6E6E6"/>
<path d="M612.025 306.667H611.403V308.538H612.025V306.667Z" fill="#E6E6E6"/>
<path d="M647.173 306.667H646.551V308.538H647.173V306.667Z" fill="#E6E6E6"/>
</g>
<g clip-path="url(#clip1)">
<path d="M-63.518 445.706C-49.4576 458.212 -31.2363 458.84 -13.6235 457.303C-11.1641 457.089 -8.72208 456.838 -6.30271 456.566C-6.28809 456.562 -6.26889 456.563 -6.25404 456.559C-6.13777 456.545 -6.02127 456.531 -5.91002 456.523C-5.41066 456.466 -4.91106 456.408 -4.41638 456.35L-4.53324 456.625L-4.90002 457.48C-4.7682 457.194 -4.63651 456.914 -4.50469 456.628C-4.46593 456.542 -4.42246 456.456 -4.38392 456.371C0.178772 446.567 4.70415 436.404 5.85847 425.21C7.05164 413.591 3.69839 400.435 -4.58402 394.724C-5.67023 393.977 -6.82056 393.382 -8.01361 392.951C-8.50895 392.765 -9.01099 392.614 -9.51873 392.481C-12.625 391.629 -15.8589 391.814 -18.8879 393.017C-21.917 394.22 -24.6318 396.398 -26.7533 399.326C-28.8748 402.254 -30.3264 405.826 -30.9588 409.677C-31.5912 413.527 -31.3816 417.516 -30.3516 421.233C-37.3736 412.342 -36.0637 397.92 -33.6414 385.867C-31.2145 373.814 -28.2765 360.403 -33.2126 349.577C-35.9566 343.551 -40.7819 339.812 -46.1972 338.306C-46.3633 338.262 -46.5292 338.218 -46.6956 338.179C-53.1477 336.566 -59.8554 338.017 -65.4787 342.243C-75.8331 350.299 -81.1513 365.574 -82.8773 380.536C-85.6583 404.614 -79.5039 431.486 -63.518 445.706Z" fill="#F2F2F2"/>
<path d="M18.9881 259.317C27.8049 259.317 34.9523 250.492 34.9523 239.607C34.9523 228.721 27.8049 219.896 18.9881 219.896C10.1714 219.896 3.02399 228.721 3.02399 239.607C3.02399 250.492 10.1714 259.317 18.9881 259.317Z" fill="#2F2E41"/>
<path d="M20.3289 259.354C27.5472 259.354 33.3988 252.13 33.3988 243.217C33.3988 234.305 27.5472 227.081 20.3289 227.081C13.1106 227.081 7.25903 234.305 7.25903 243.217C7.25903 252.13 13.1106 259.354 20.3289 259.354Z" fill="#FFB8B8"/>
<path d="M70.1046 292.3C69.897 292.558 69.7062 292.835 69.534 293.13L43.16 291.98L40.1435 284.995L31.0107 289.238L35.3776 302.244C35.7304 303.294 36.3497 304.176 37.1426 304.755C37.9355 305.334 38.8591 305.58 39.7748 305.456L69.6196 301.41C70.313 302.518 71.2633 303.34 72.3441 303.765C73.4248 304.19 74.5849 304.199 75.6698 303.791C76.7548 303.382 77.7134 302.575 78.418 301.478C79.1226 300.38 79.5398 299.044 79.6142 297.646C79.6886 296.249 79.4166 294.856 78.8345 293.654C78.2523 292.452 77.3875 291.498 76.3552 290.917C75.3228 290.337 74.1719 290.158 73.0553 290.405C71.9387 290.652 70.9095 291.313 70.1046 292.3H70.1046Z" fill="#FFB8B8"/>
<path d="M27.4976 295.518C27.1615 295.332 26.8619 295.059 26.6192 294.716C26.3765 294.374 26.1965 293.972 26.0914 293.536L22.4179 278.313C21.6202 276.205 21.5321 273.793 22.1729 271.604C22.8137 269.416 24.1312 267.631 25.8364 266.64C27.5416 265.65 29.4954 265.534 31.2694 266.319C33.0435 267.105 34.4929 268.726 35.3001 270.829L42.4159 284.123C42.619 284.503 42.7534 284.932 42.8101 285.381C42.8668 285.831 42.8443 286.29 42.7443 286.727C42.6443 287.165 42.469 287.571 42.2305 287.918C41.992 288.264 41.6957 288.543 41.362 288.735L29.6322 295.499C29.2985 295.691 28.935 295.793 28.5666 295.796C28.1982 295.799 27.8336 295.705 27.4976 295.518Z" fill="#CCCCCC"/>
<path d="M53.4737 450.068L59.2038 446.217L49.8993 417.096L41.4426 422.78L53.4737 450.068Z" fill="#FFB8B8"/>
<path d="M50.994 448.74L62.2782 441.156L62.2786 441.156C63.223 440.521 64.2594 440.122 65.3286 439.982C66.3978 439.842 67.4789 439.963 68.5102 440.339C69.5415 440.714 70.5027 441.337 71.339 442.172C72.1754 443.006 72.8704 444.036 73.3844 445.202L73.5116 445.49L55.036 457.908L50.994 448.74Z" fill="#2F2E41"/>
<path d="M-11.2421 447.47L1.60578 447.469H1.6063C2.68152 447.469 3.74622 447.731 4.73961 448.239C5.73299 448.747 6.63561 449.491 7.39591 450.43C8.15622 451.369 8.75932 452.483 9.17079 453.71C9.58225 454.936 9.79404 456.251 9.79403 457.578V457.907L-11.2417 457.908L-11.2421 447.47Z" fill="#2F2E41"/>
<path d="M30.9615 312.207L33.0901 343.743L56.8334 431.688C56.9267 432.034 56.9608 432.4 56.9334 432.763C56.906 433.126 56.8177 433.478 56.6741 433.797C56.5306 434.115 56.3349 434.393 56.0996 434.614C55.8642 434.834 55.5943 434.991 55.307 435.076L48.03 437.215C47.564 437.352 47.0743 437.291 46.6399 437.041C46.2055 436.792 45.8519 436.369 45.6363 435.841L15.281 361.499C15.182 361.256 15.0247 361.058 14.8307 360.93C14.6367 360.803 14.4155 360.752 14.1975 360.786C13.9794 360.82 13.7752 360.937 13.6129 361.12C13.4506 361.303 13.3382 361.543 13.2911 361.808L-0.0675983 436.945C-0.171638 437.531 -0.434502 438.054 -0.812622 438.43C-1.19074 438.805 -1.66143 439.01 -2.14667 439.01H-8.91645C-9.19841 439.01 -9.47761 438.941 -9.73779 438.807C-9.99796 438.673 -10.2339 438.476 -10.4319 438.228C-10.6298 437.98 -10.7858 437.686 -10.8908 437.363C-10.9957 437.04 -11.0475 436.694 -11.0432 436.346C-10.4228 384.247 -12.4693 324.882 3.82245 315.492L6.48314 306.95L30.9615 312.207Z" fill="#2F2E41"/>
<path d="M5.71663 309.187L2.97316 288.703C2.51904 285.344 2.75721 281.897 3.66566 278.682C4.57412 275.466 6.12366 272.584 8.1714 270.303C10.173 268.043 12.6033 266.441 15.238 265.646C17.8728 264.851 20.6273 264.888 23.2476 265.753C23.4031 265.804 23.5587 265.858 23.7146 265.911C26.9387 267.051 29.8017 269.385 31.917 272.598C34.0322 275.811 35.2978 279.748 35.5428 283.878C36.0663 292.774 35.5979 305.68 30.3926 316.643L30.2915 316.856L5.71663 309.187Z" fill="#CCCCCC"/>
<path d="M33.331 234.641C30.3444 237.183 26.7994 238.535 23.1721 238.517C24.466 239.625 25.9391 240.373 27.4897 240.71C22.6669 241.988 17.6826 242.022 12.8485 240.812C11.7739 240.599 10.7371 240.16 9.78347 239.512C9.30826 239.185 8.8942 238.737 8.56826 238.199C8.24232 237.661 8.01178 237.044 7.89161 236.388C7.57038 234.123 9.00029 232.064 10.4863 230.677C12.7615 228.585 15.3848 227.144 18.1664 226.458C20.948 225.772 23.8184 225.857 26.5699 226.709C28.3665 227.282 30.1664 228.251 31.3334 230.032C32.5003 231.814 32.846 234.56 31.7342 236.395L33.331 234.641Z" fill="#2F2E41"/>
<path d="M18.7775 219.799C20.2926 212.246 14.8625 203.854 8.5616 204.011C2.16878 204.171 -2.53558 211.303 -5.76938 218.114C-9.00319 224.924 -12.2171 232.645 -18.1538 235.577C-20.1183 236.547 -22.2472 236.9 -24.3495 236.605C-26.4519 236.309 -28.4619 235.374 -30.1995 233.883C-31.9371 232.393 -33.3479 230.393 -34.3054 228.063C-35.2628 225.733 -35.7371 223.147 -35.6856 220.535C-36.4827 228.809 -35.3784 237.761 -31.0567 244.161C-26.7349 250.56 -18.6933 253.445 -12.9132 249.144C-9.61208 246.688 -7.50206 242.418 -5.76248 238.171C-4.02291 233.925 -2.47498 229.447 0.160858 225.975C2.7967 222.503 6.87237 220.198 10.5406 221.659C11.9967 222.239 13.303 223.369 14.8073 223.713C16.3117 224.057 18.2057 223.174 18.4112 221.303L18.7775 219.799Z" fill="#2F2E41"/>
<path d="M-12.7228 356.748C-13.2653 355.963 -13.6618 355.041 -13.8843 354.046C-14.1069 353.052 -14.1501 352.009 -14.011 350.992C-13.8718 349.974 -13.5537 349.007 -13.079 348.158C-12.6043 347.308 -11.9845 346.598 -11.2634 346.076L0.0740499 283.334L11.5749 289.162L-3.1858 349.003C-2.55656 350.557 -2.4108 352.342 -2.77616 354.019C-3.14152 355.697 -3.99261 357.151 -5.16815 358.106C-6.3437 359.06 -7.76203 359.449 -9.15439 359.199C-10.5468 358.949 -11.8164 358.077 -12.7228 356.748H-12.7228Z" fill="#FFB8B8"/>
<path d="M-4.41799 292.335C-4.59906 291.939 -4.70879 291.499 -4.73969 291.046C-4.77059 290.593 -4.72193 290.137 -4.59704 289.709L-0.237366 274.765C0.133719 272.484 1.22238 270.477 2.7899 269.185C4.35743 267.893 6.27589 267.422 8.12462 267.874C9.97335 268.326 11.6015 269.664 12.652 271.596C13.7025 273.528 14.0897 275.895 13.7286 278.179L13.0663 294.093C13.0474 294.548 12.9494 294.991 12.7791 295.395C12.6087 295.798 12.3699 296.151 12.0791 296.43C11.7882 296.709 11.452 296.907 11.0935 297.012C10.7349 297.116 10.3624 297.123 10.0013 297.034L-2.6905 293.883C-3.05171 293.793 -3.39304 293.609 -3.69117 293.342C-3.9893 293.074 -4.23721 292.731 -4.41799 292.335Z" fill="#CCCCCC"/>
<path d="M88.4719 285.298L88.2831 285.266L88.9943 278.878C89.1035 277.898 88.8927 276.904 88.4083 276.115C87.9239 275.326 87.2056 274.807 86.4114 274.673L75.4495 272.812C74.6553 272.677 73.8503 272.938 73.2115 273.536C72.5727 274.134 72.1525 275.021 72.0433 276.001L68.1415 311.047C68.0323 312.027 68.2431 313.021 68.7275 313.81C69.2119 314.598 69.9302 315.117 70.7244 315.252L81.6862 317.113C82.4804 317.247 83.2855 316.987 83.9242 316.389C84.563 315.791 84.9832 314.904 85.0924 313.923L87.7768 289.813L87.9657 289.845L88.4719 285.298Z" fill="#3F3D56"/>
<path d="M86.0669 276.547L84.7021 276.315C84.7438 276.516 84.7448 276.726 84.7051 276.927C84.6654 277.128 84.5862 277.314 84.4746 277.469C84.3629 277.624 84.2221 277.742 84.0647 277.813C83.9073 277.885 83.738 277.908 83.5718 277.88L77.5818 276.863C77.4156 276.835 77.2576 276.756 77.1217 276.635C76.9858 276.514 76.8761 276.353 76.8024 276.167C76.7286 275.981 76.6931 275.775 76.6988 275.568C76.7046 275.361 76.7515 275.159 76.8354 274.98L75.5607 274.764C75.2806 274.716 74.9956 274.737 74.7221 274.825C74.4485 274.914 74.1918 275.068 73.9665 275.279C73.7412 275.49 73.5517 275.754 73.4089 276.055C73.2662 276.356 73.1729 276.689 73.1343 277.035L69.418 310.414C69.3795 310.76 69.3965 311.112 69.4682 311.45C69.5398 311.787 69.6646 312.104 69.8354 312.382C70.0063 312.661 70.2198 312.895 70.4639 313.071C70.708 313.247 70.9778 313.362 71.2579 313.41L81.7641 315.193C82.3298 315.289 82.9032 315.104 83.3583 314.678C83.8133 314.252 84.1126 313.62 84.1904 312.921L87.9068 279.542C87.9845 278.844 87.8344 278.136 87.4893 277.574C87.1443 277.012 86.6326 276.643 86.0669 276.547L86.0669 276.547Z" fill="white"/>
<path d="M78.6157 304.259C81.8486 304.259 84.4693 301.024 84.4693 297.032C84.4693 293.041 81.8486 289.805 78.6157 289.805C75.3829 289.805 72.7622 293.041 72.7622 297.032C72.7622 301.024 75.3829 304.259 78.6157 304.259Z" fill="#6C63FF"/>
<path d="M78.0355 299.789C77.9038 299.789 77.7756 299.737 77.6702 299.639L77.6637 299.633L76.2881 298.333C76.2241 298.273 76.1703 298.197 76.1299 298.112C76.0895 298.026 76.0632 297.931 76.0525 297.833C76.0419 297.734 76.047 297.634 76.0677 297.538C76.0884 297.442 76.1242 297.352 76.1731 297.273C76.222 297.195 76.2831 297.129 76.3527 297.079C76.4224 297.029 76.4992 296.997 76.579 296.984C76.6587 296.971 76.7397 296.978 76.8174 297.004C76.895 297.03 76.9678 297.074 77.0314 297.135L77.9225 297.978L80.0281 294.588C80.0769 294.509 80.1378 294.443 80.2073 294.394C80.2768 294.344 80.3535 294.312 80.4331 294.299C80.5127 294.286 80.5935 294.293 80.671 294.318C80.7486 294.344 80.8213 294.388 80.885 294.448L80.8719 294.47L80.8853 294.449C81.0138 294.57 81.0978 294.75 81.119 294.949C81.1402 295.147 81.0969 295.348 80.9984 295.507L78.5217 299.495C78.4644 299.586 78.3907 299.661 78.3064 299.712C78.2221 299.763 78.1294 299.789 78.0355 299.789Z" fill="white"/>
<path d="M132.565 458H-70.18C-70.3211 458 -70.4564 457.931 -70.5562 457.808C-70.656 457.684 -70.7121 457.517 -70.7121 457.343C-70.7121 457.169 -70.656 457.002 -70.5562 456.878C-70.4564 456.755 -70.3211 456.686 -70.18 456.686H132.565C132.706 456.686 132.841 456.755 132.941 456.878C133.041 457.002 133.097 457.169 133.097 457.343C133.097 457.517 133.041 457.684 132.941 457.808C132.841 457.931 132.706 458 132.565 458Z" fill="#3F3D56"/>
</g>
<path d="M1 30.8056V1H770V59.083C680.519 51.6364 362.788 -33.4306 256.71 72.4306C134.065 194.824 11.688 93.5 1 30.8056Z" fill="#5E68E4" stroke="#5E68E4"/>
<defs>
<clipPath id="clip0">
<rect width="249" height="197" fill="white" transform="translate(521 235)"/>
</clipPath>
<clipPath id="clip1">
<rect width="122" height="431" fill="white" transform="translate(1 27)"/>
</clipPath>
</defs>
</svg>
