<svg width="210" height="163" viewBox="0 0 210 163" fill="none" xmlns="http://www.w3.org/2000/svg">
<path d="M31.7167 120.287L43.1471 109.591L48.5674 104.58C49.0782 104.107 49.4701 103.52 49.7109 102.867C49.9517 102.214 50.0347 101.512 49.9529 100.821C49.8711 100.129 49.627 99.4665 49.2405 98.8877C48.854 98.3088 48.3361 97.83 47.7293 97.4905C47.1933 97.1906 46.6007 97.0065 45.9894 96.95C45.3782 96.8935 44.7619 96.966 44.1803 97.1626C43.5987 97.3593 43.0645 97.6758 42.6123 98.0918C42.1601 98.5079 41.7997 99.0142 41.5545 99.5782L39.7716 103.679L28.6998 115.19L31.7167 120.287Z" fill="#FFB9B9"/>
<path d="M30.2228 113.349L34.2367 120.051L17.9418 130.07C3.57618 119.719 0.732437 116.351 4.2522 99.8641L7.05165 97.0581L20.5877 119.064L30.2228 113.349Z" fill="#6C63FF"/>
<path d="M53.8865 94.7162C54.0473 94.5572 54.2578 94.4583 54.4826 94.4362C54.7074 94.414 54.933 94.4698 55.1217 94.5943L62.6676 99.5207C62.7916 99.6016 62.8959 99.7093 62.973 99.8359C63.0501 99.9624 63.098 100.105 63.1132 100.252C63.1284 100.4 63.1105 100.549 63.0609 100.688C63.0113 100.828 62.9311 100.955 62.8263 101.059L43.6364 120.211C43.5431 120.304 43.4323 120.378 43.3104 120.428C43.1885 120.477 43.058 120.502 42.9264 120.501C42.7948 120.5 42.6648 120.472 42.5439 120.42C42.423 120.368 42.3136 120.292 42.2222 120.198L35.9333 113.673C35.7516 113.484 35.6518 113.23 35.6556 112.968C35.6594 112.705 35.7665 112.454 35.9537 112.27L53.8865 94.7162Z" fill="#3F3D56"/>
<path d="M61.1811 100.048L60.4002 99.5487C60.4824 99.6956 60.5127 99.8661 60.4859 100.032C60.4592 100.199 60.377 100.351 60.2528 100.465C60.1286 100.578 59.9697 100.646 59.8021 100.658C59.6344 100.669 59.4677 100.623 59.3293 100.528L54.2759 97.0455C54.161 96.9665 54.0706 96.8567 54.015 96.7287C53.9593 96.6006 53.9407 96.4595 53.9612 96.3214C53.9817 96.1832 54.0405 96.0536 54.1309 95.9474C54.2213 95.8411 54.3397 95.7624 54.4725 95.7203L54.0702 95.4632C54.018 95.4298 53.9559 95.4154 53.8944 95.4224C53.8329 95.4293 53.7756 95.4571 53.732 95.5013L36.732 112.247C36.7066 112.273 36.6867 112.303 36.6732 112.337C36.6598 112.37 36.6532 112.406 36.6539 112.443C36.6545 112.479 36.6624 112.514 36.677 112.547C36.6916 112.581 36.7126 112.61 36.7389 112.635L42.9129 118.665C42.964 118.714 43.032 118.74 43.1023 118.739C43.1727 118.738 43.2399 118.71 43.2897 118.66L61.2267 100.469C61.2554 100.44 61.2773 100.405 61.2908 100.367C61.3043 100.329 61.3091 100.288 61.3047 100.247C61.3003 100.207 61.2869 100.168 61.2655 100.133C61.2442 100.099 61.2153 100.07 61.1811 100.048Z" fill="white"/>
<path d="M41.5605 108.549L46.7756 113.478L59.1799 101.194L52.8846 97.0864L41.5605 108.549Z" fill="#6C63FF"/>
<path d="M58.6978 104.225C58.664 104.191 58.6451 104.145 58.6451 104.098C58.6451 104.05 58.664 104.004 58.6978 103.97L59.7826 102.882C59.817 102.849 59.8627 102.831 59.9102 102.831C59.9577 102.831 60.0034 102.849 60.0378 102.882C60.0716 102.916 60.0906 102.962 60.0906 103.01C60.0906 103.058 60.0716 103.104 60.0378 103.138L58.9531 104.225C58.9187 104.258 58.873 104.277 58.8254 104.277C58.7779 104.277 58.7322 104.258 58.6978 104.225Z" fill="#E6E6E6"/>
<path d="M56.8704 105.801L57.9552 104.714C57.972 104.697 57.9918 104.684 58.0137 104.675C58.0356 104.666 58.0591 104.661 58.0828 104.661C58.1065 104.661 58.13 104.666 58.1519 104.675C58.1738 104.684 58.1937 104.697 58.2105 104.714C58.2272 104.731 58.2405 104.751 58.2496 104.773C58.2587 104.795 58.2633 104.818 58.2633 104.842C58.2633 104.866 58.2586 104.889 58.2496 104.911C58.2405 104.933 58.2272 104.953 58.2105 104.97L57.1257 106.057C57.0918 106.091 57.0459 106.11 56.998 106.11C56.9502 106.11 56.9043 106.091 56.8704 106.057C56.8366 106.023 56.8176 105.977 56.8176 105.929C56.8176 105.881 56.8366 105.835 56.8704 105.801Z" fill="#E6E6E6"/>
<path d="M41.6809 114.001C41.0081 114.001 40.4626 113.454 40.4626 112.78C40.4626 112.106 41.0081 111.559 41.6809 111.559C42.3537 111.559 42.8991 112.106 42.8991 112.78C42.8991 113.454 42.3537 114.001 41.6809 114.001Z" fill="#6C63FF"/>
<path d="M119.966 152.711L126.154 154.349C127.034 156.089 128.536 157.432 130.36 158.11C132.185 158.787 134.198 158.749 135.995 158.004L136.131 157.948C136.951 157.596 137.716 157.128 138.402 156.558C141.001 154.446 145.332 153.355 151.075 153.099C151.427 152.988 151.732 152.763 151.943 152.459C152.153 152.155 152.257 151.79 152.237 151.42C152.217 151.031 152.061 150.661 151.797 150.375C151.533 150.089 151.177 149.904 150.791 149.854L119.825 145.805L119.966 152.711Z" fill="#E6E6E6"/>
<path d="M39.6793 158.208C55.8698 155.605 70.6194 151.393 82.9862 144.518L121.372 153.961L121.231 145.524L91.2269 134.975C86.165 133.195 80.7855 132.506 75.4399 132.953L39.6794 139.604L39.6793 158.208Z" fill="#2F2E41"/>
<path d="M101.405 161.594C101.527 161.186 101.514 160.75 101.368 160.35C101.222 159.95 100.951 159.608 100.596 159.375L86.0795 151.725L82.5644 142.564L76.5183 146.37L78.2056 153.135L77.8066 155.934C77.6814 156.812 77.746 157.707 77.9959 158.558C78.2457 159.408 78.6751 160.196 79.2549 160.866C79.8346 161.536 80.5513 162.073 81.3562 162.441C82.1612 162.81 83.0358 163 83.9206 163H99.5192C99.9425 163 100.355 162.863 100.694 162.61C101.034 162.357 101.283 162 101.405 161.594Z" fill="#E6E6E6"/>
<path d="M20.1351 152.993C37.6653 174.84 49.727 151.045 61.614 125.792L75.9559 149.188L84.6735 142.987L69.6413 109.838C69.2703 109.02 68.7108 108.302 68.0088 107.743C67.3068 107.184 66.4823 106.8 65.6034 106.623C64.7244 106.446 63.816 106.481 62.953 106.724C62.09 106.968 61.2971 107.413 60.6395 108.024L39.6794 131.43L35.7424 131.148L20.1351 152.993Z" fill="#2F2E41"/>
<path d="M19.1508 90.5582C13.4043 90.5582 8.74593 85.8888 8.74593 80.1288C8.74593 74.3689 13.4043 69.6995 19.1508 69.6995C24.8972 69.6995 29.5557 74.3689 29.5557 80.1288C29.5557 85.8888 24.8972 90.5582 19.1508 90.5582Z" fill="#FFB9B9"/>
<path d="M5.93378 98.7325L17.4635 101.269C18.5703 96.5103 20.1727 91.881 22.2441 87.4575L11.558 83.5112C10.2448 88.7761 8.35877 93.8804 5.93378 98.7325Z" fill="#FFB9B9"/>
<path d="M19.1508 155.671L39.6794 131.43L31.3201 117.503C30.4402 111.238 27.2119 106.313 22.2442 102.382L18.8696 96.7594L8.74593 92.5312C5.19139 95.3654 2.66452 99.2918 1.55416 103.706C0.443798 108.121 0.811489 112.779 2.60065 116.963L19.1508 155.671Z" fill="#6C63FF"/>
<path d="M36.8672 128.893L49.2406 119.309L55.1025 114.825C55.6549 114.403 56.0995 113.855 56.4 113.227C56.7004 112.599 56.848 111.908 56.8308 111.212C56.8136 110.516 56.632 109.833 56.3009 109.221C55.9697 108.609 55.4986 108.084 54.9259 107.689C54.4201 107.34 53.8471 107.102 53.2437 106.989C52.6404 106.875 52.0201 106.89 51.4227 107.032C50.8253 107.173 50.2642 107.439 49.7753 107.811C49.2864 108.183 48.8806 108.653 48.5841 109.192L46.4285 113.108L34.3363 123.538L36.8672 128.893Z" fill="#FFB9B9"/>
<path d="M36.0236 121.846L39.3982 128.893L22.2442 137.349C8.90139 125.705 1.46174 114.538 6.49628 98.4507L12.9642 100.142L25.9 126.638L36.0236 121.846Z" fill="#6C63FF"/>
<path d="M5.64295 68.1091C3.35499 68.1091 1.50023 66.25 1.50023 63.9567C1.50023 61.6633 3.35499 59.8042 5.64295 59.8042C7.9309 59.8042 9.78564 61.6633 9.78564 63.9567C9.78564 66.25 7.9309 68.1091 5.64295 68.1091Z" fill="#2F2E41"/>
<path d="M9.9117 62.9401C9.84364 61.8866 9.37747 60.8987 8.60815 60.1776C7.83883 59.4565 6.82421 59.0565 5.77095 59.059C5.85649 59.0482 5.94127 59.0349 6.0285 59.0293C7.12495 58.9587 8.2045 59.3275 9.02965 60.0547C9.85481 60.7818 10.358 61.8078 10.4285 62.9068C10.499 64.0058 10.131 65.0879 9.40554 65.915C8.68008 66.7421 7.65653 67.2465 6.56008 67.3171C6.47285 67.3227 6.38709 67.3205 6.30086 67.3207C7.34577 67.188 8.30094 66.6611 8.97181 65.8472C9.64267 65.0333 9.97879 63.9937 9.9117 62.9401Z" fill="#2F2E41"/>
<path d="M9.93511 64.7133C13.6297 61.6411 24.2269 65.5457 24.9107 67.6111C29.9069 68.2936 33.6896 71.2154 33.6896 76.4107V76.4107C30.7192 77.6304 27.341 77.4801 23.6891 76.4107C17.8678 81.1659 17.4687 87.1438 21.009 94.0098L16.6535 94.0971L11.2546 86.188L10.9965 94.2105L1.01263 94.0098V82.513C0.980347 78.6904 1.8581 74.9152 3.57303 71.5008C5.12884 68.4711 7.5433 66.7021 9.93511 64.7133Z" fill="#2F2E41"/>
<path d="M19.232 85.0256C18.1379 85.0256 17.251 83.7809 17.251 82.2456C17.251 80.7102 18.1379 79.4656 19.232 79.4656C20.3261 79.4656 21.2131 80.7102 21.2131 82.2456C21.2131 83.7809 20.3261 85.0256 19.232 85.0256Z" fill="#FFB8B8"/>
<path d="M208.63 26.5044H209.252V28.3751H208.63V26.5044Z" fill="#E6E6E6"/>
<path d="M208.63 31.7844H209.252V35.1938H208.63V31.7844Z" fill="#E6E6E6"/>
<path d="M208.63 38.6028H209.252V40.4735H208.63V38.6028Z" fill="#E6E6E6"/>
<path d="M147.975 0.296143L148.597 0.296143V2.16683H147.975V0.296143Z" fill="#E6E6E6"/>
<path d="M147.975 33.7229H148.597V29.7782H147.975V33.7229ZM147.975 25.8338H148.597V21.8893H147.975V25.8338ZM147.975 17.9447H148.597V14.0002H147.975V17.9447ZM147.975 10.0555H148.597V6.11108H147.975V10.0555Z" fill="#E6E6E6"/>
<path d="M147.975 37.6675H148.597V39.5382H147.975V37.6675Z" fill="#E6E6E6"/>
<path d="M112.827 37.6675H113.449V39.5382H112.827V37.6675Z" fill="#E6E6E6"/>
</svg>
