<svg width="1041" height="476" viewBox="0 0 1041 476" fill="none" xmlns="http://www.w3.org/2000/svg">
<path d="M863.09 455.65V468.65L711.17 470.05L709.55 470.08L651.81 470.61L650.43 470.63L632.88 470.78H632.36L525.38 471.77L349.77 473.4H349.62L304.97 473.82L304.49 473.83L106.09 475.65V460.65L152.74 432.65L246.34 431.87L248.34 431.86L249 431.85L251 431.82L295.94 431.45L297.95 431.44L298.59 431.43L300.59 431.42L315 431.3L315.38 431.29L350.93 430.99H351.22L628.62 428.65L635.41 428.6H636.09L641.27 428.55L678.92 428.24L680.92 428.21L682.77 428.19H683.73L695.44 428.1L697.76 428.07L700.87 428.05L710.62 427.96L726.09 427.83L728.09 427.81L731.57 427.79H732.22L806.93 427.15L863.09 455.65Z" fill="#65617D"/>
<path opacity="0.2" d="M863.09 455.65V468.65L711.17 470.05L709.55 470.08L651.81 470.61L650.43 470.63L632.88 470.78H632.36L525.38 471.77L349.77 473.4H349.62L304.97 473.82L304.49 473.83L106.09 475.65V460.65L152.74 432.65L246.34 431.87L248.34 431.86L249 431.85L251 431.82L295.94 431.45L297.95 431.44L298.59 431.43L300.59 431.42L315 431.3L315.38 431.29L350.93 430.99H351.22L628.62 428.65L635.41 428.6H636.09L641.27 428.55L678.92 428.24L680.92 428.21L682.77 428.19H683.73L695.44 428.1L697.76 428.07L700.87 428.05L710.62 427.96L726.09 427.83L728.09 427.81L731.57 427.79H732.22L806.93 427.15L863.09 455.65Z" fill="black"/>
<path d="M296.1 405.66V430.15C296.1 431.31 295.772 432.446 295.152 433.427C294.533 434.408 293.648 435.192 292.6 435.69C291.82 436.068 290.967 436.273 290.1 436.29L255.2 437.03C254.268 437.052 253.343 436.857 252.5 436.46C251.434 435.971 250.53 435.186 249.897 434.199C249.265 433.211 248.929 432.063 248.93 430.89V405.66H296.1Z" fill="#3F3D56"/>
<path opacity="0.1" d="M296.1 405.66V430.15C296.1 431.31 295.772 432.446 295.152 433.427C294.533 434.408 293.648 435.192 292.6 435.69C291.82 436.068 290.967 436.273 290.1 436.29L255.2 437.03C254.268 437.052 253.343 436.857 252.5 436.46C251.434 435.971 250.53 435.186 249.897 434.199C249.265 433.211 248.929 432.063 248.93 430.89V405.66H296.1Z" fill="black"/>
<path d="M298.1 405.66V430.15C298.1 431.31 297.772 432.446 297.152 433.427C296.533 434.408 295.648 435.192 294.6 435.69C293.82 436.068 292.967 436.273 292.1 436.29L257.2 437.03C256.268 437.052 255.343 436.857 254.5 436.46C253.434 435.971 252.53 435.186 251.897 434.199C251.265 433.211 250.929 432.063 250.93 430.89V405.66H298.1Z" fill="#3F3D56"/>
<path d="M728.09 405.65H680.92V437.15H728.09V405.65Z" fill="#3F3D56"/>
<path opacity="0.1" d="M728.09 405.65H680.92V437.15H728.09V405.65Z" fill="black"/>
<path d="M726.09 405.65H678.92V437.15H726.09V405.65Z" fill="#3F3D56"/>
<path opacity="0.1" d="M298.09 405.65V410.62L250.92 411.88V405.65H298.09Z" fill="black"/>
<path d="M381.35 234.36V402.56C381.338 403.587 380.931 404.569 380.215 405.305C379.498 406.04 378.526 406.472 377.5 406.51L185.85 411.61H185.8C184.756 411.597 183.759 411.177 183.021 410.439C182.283 409.701 181.863 408.704 181.85 407.66V234.36C181.863 233.316 182.283 232.319 183.021 231.581C183.759 230.843 184.756 230.423 185.8 230.41H377.4C378.444 230.423 379.441 230.843 380.179 231.581C380.917 232.319 381.337 233.316 381.35 234.36V234.36Z" fill="#65617D"/>
<path opacity="0.1" d="M185.85 230.41V411.61H185.8C184.756 411.597 183.759 411.177 183.021 410.439C182.283 409.701 181.863 408.704 181.85 407.66V234.36C181.863 233.316 182.283 232.319 183.021 231.581C183.759 230.843 184.756 230.423 185.8 230.41H185.85Z" fill="black"/>
<path d="M194.59 241.15H372.09V389.4L194.59 393.4V241.15Z" fill="#6C63FF"/>
<path opacity="0.1" d="M726.09 405.65V412.06L678.92 410.8V405.65H726.09Z" fill="black"/>
<path d="M788.35 234.36V407.66C788.337 408.712 787.91 409.717 787.161 410.456C786.412 411.196 785.402 411.61 784.35 411.61V411.61L592.66 406.51C591.634 406.472 590.662 406.04 589.945 405.305C589.229 404.569 588.822 403.587 588.81 402.56V234.36C588.823 233.316 589.243 232.319 589.981 231.581C590.719 230.843 591.716 230.423 592.76 230.41H784.36C785.411 230.413 786.418 230.828 787.164 231.567C787.911 232.306 788.337 233.31 788.35 234.36V234.36Z" fill="#65617D"/>
<path opacity="0.1" d="M788.35 234.36V407.66C788.337 408.712 787.91 409.717 787.161 410.456C786.412 411.196 785.402 411.61 784.35 411.61V411.61V230.41C785.402 230.41 786.412 230.824 787.161 231.564C787.91 232.303 788.337 233.308 788.35 234.36Z" fill="black"/>
<path d="M775.59 241.15H598.09V389.4L775.59 393.4V241.15Z" fill="#6C63FF"/>
<path d="M583.85 234.36V402.56C583.838 403.587 583.431 404.569 582.715 405.305C581.998 406.04 581.026 406.472 580 406.51L388.35 411.61C387.298 411.61 386.288 411.196 385.539 410.456C384.79 409.717 384.363 408.712 384.35 407.66V234.36C384.363 233.316 384.783 232.319 385.521 231.581C386.259 230.843 387.256 230.423 388.3 230.41H579.9C580.944 230.423 581.941 230.843 582.679 231.581C583.417 232.319 583.837 233.316 583.85 234.36V234.36Z" fill="#65617D"/>
<path d="M397.09 241.15H574.59V389.4L397.09 393.4V241.15Z" fill="#6C63FF"/>
<path opacity="0.1" d="M863.09 455.65V468.65L711.17 470.05L709.55 470.08L651.81 470.61L650.43 470.63L632.88 470.78H632.36L525.38 471.77L349.77 473.4H349.62L304.97 473.82L304.49 473.83L106.09 475.65V460.65L308.6 459.32H309.08L350.07 459.04H350.26L633.34 457.17H633.63L633.8 457.16H634.27L639.06 457.13H640.52L715.01 456.63L719.41 456.61L720.39 456.6L863.09 455.65Z" fill="black"/>
<path d="M487.26 271.48C515.609 271.48 538.59 248.499 538.59 220.15C538.59 191.801 515.609 168.82 487.26 168.82C458.911 168.82 435.93 191.801 435.93 220.15C435.93 248.499 458.911 271.48 487.26 271.48Z" fill="#FBBEBE"/>
<path d="M538.6 299.16C538.6 299.16 439.1 311.16 448.6 299.16C452.04 294.82 452.99 281.96 452.8 267.31C452.74 262.86 452.58 258.25 452.35 253.66C451.25 231.66 448.6 210.16 448.6 210.16C448.6 210.16 535.6 169.16 525.6 201.66C521.6 214.79 522.91 233.23 525.95 250.54C526.84 255.59 527.87 260.54 528.95 265.24C531.586 276.704 534.807 288.025 538.6 299.16V299.16Z" fill="#FBBEBE"/>
<path d="M506.13 295.09C517.64 292.96 529.83 289.09 540.66 293.55C543.51 294.72 546.13 296.43 549.05 297.41C551.97 298.39 555.17 298.63 558.21 299.32C568.89 301.74 577.55 309.87 583.11 319.32C588.67 328.77 591.55 339.46 594.37 350.04L601.27 375.87C607.27 398.32 613.27 420.96 614.66 444.17C531.127 448.951 447.403 449.429 363.82 445.6C369.26 435.26 374.82 424.29 374.36 412.6C373.9 400.91 367.17 389.38 369.6 377.86C371.15 370.52 376.17 364.47 379.24 357.64C387.99 338.12 381.18 311.85 396.56 296.99C403.48 290.31 413.56 287.78 423.19 288.1C435.47 288.51 448.04 292.34 460.19 294.21C475.75 296.57 490.45 297.97 506.13 295.09Z" fill="#FF6584"/>
<path opacity="0.1" d="M637.03 406.26L636.93 407.69V407.79L636.76 410.09L635.43 428.6L633.82 450.9L633.36 457.18L632.36 470.62V470.79L525.36 471.79L349.77 473.69V474.53H349.63V473.69V473.41L350.08 459.05L350.94 430.99L351.68 407.2L351.75 404.83C351.794 403.4 352.129 401.993 352.734 400.696C353.34 399.4 354.203 398.24 355.272 397.288C356.341 396.336 357.592 395.612 358.95 395.161C360.308 394.709 361.744 394.538 363.17 394.66C367.89 395.06 374.02 395.55 381.35 396.07L384.35 396.29C426.68 399.23 504.91 403.03 583.85 398.29C585.51 398.2 587.18 398.1 588.85 397.98C601.09 397.21 613.32 396.22 625.43 394.98C626.961 394.82 628.508 394.997 629.963 395.499C631.418 396.001 632.746 396.817 633.851 397.887C634.957 398.958 635.815 400.258 636.364 401.696C636.913 403.134 637.141 404.675 637.03 406.21V406.26Z" fill="black"/>
<path d="M349.74 474.53V473.69L525.36 471.78L632.36 470.78H632.66V470.61L633.66 457.17L634.09 451.17L635.73 428.56L637.02 410.66V410.22C637.08 409.395 637.043 408.566 636.91 407.75C636.916 407.717 636.916 407.683 636.91 407.65C636.635 405.962 635.948 404.369 634.91 403.01C633.809 401.598 632.366 400.49 630.718 399.79C629.07 399.09 627.271 398.822 625.49 399.01C613.38 400.25 601.15 401.24 588.91 402.01C587.24 402.13 585.57 402.23 583.91 402.32C504.97 407.01 426.74 403.21 384.41 400.32L381.41 400.1C374.08 399.58 367.95 399.1 363.23 398.69C360.633 398.471 358.048 399.221 355.972 400.797C353.896 402.372 352.478 404.66 351.99 407.22C351.889 407.761 351.829 408.31 351.81 408.86L351.13 431.02L350.2 459.09L349.76 473.45V473.73V474.57L349.74 474.53Z" fill="#3F3D56"/>
<path opacity="0.1" d="M637.33 413.27L636.1 428.6L634.27 451.45L633.81 457.17L632.81 469.98L632.75 470.62V470.79L632.6 472.27L632.71 470.79H632.42L525.42 471.79L349.77 473.69V473.41L350.26 459.05L351.26 430.99L351.9 412.34C351.931 411.279 352.228 410.243 352.762 409.326C353.297 408.409 354.052 407.64 354.96 407.09C356.092 406.396 357.416 406.081 358.74 406.19C360.84 406.36 363.42 406.56 366.43 406.78C371.32 407.14 377.35 407.56 384.37 408C397.37 408.82 413.68 409.7 432.37 410.42C484.37 412.42 554.57 413.09 621.25 407.25C624.25 406.99 627.35 406.7 630.38 406.41C631.579 406.29 632.788 406.52 633.86 407.07C634.164 407.221 634.452 407.402 634.72 407.61C635.591 408.241 636.28 409.089 636.72 410.07C636.822 410.265 636.906 410.469 636.97 410.68C637.27 411.509 637.393 412.391 637.33 413.27V413.27Z" fill="black"/>
<path opacity="0.1" d="M298.1 426.96V430.15C298.1 431.31 297.772 432.446 297.152 433.427C296.533 434.408 295.648 435.192 294.6 435.69L254.5 436.46C253.434 435.971 252.53 435.186 251.897 434.199C251.265 433.211 250.929 432.063 250.93 430.89V427.89L298.1 426.96Z" fill="black"/>
<path d="M298.59 437.57L246.34 438.57V429.9L298.59 428.9V437.57Z" fill="#3F3D56"/>
<path opacity="0.1" d="M298.59 437.57L246.34 438.57V429.9L298.59 428.9V437.57Z" fill="black"/>
<path d="M300.59 437.57L248.34 438.57V429.9L300.59 428.9V437.57Z" fill="#3F3D56"/>
<path opacity="0.1" d="M679.22 428.96V432.15C679.219 433.31 679.548 434.446 680.168 435.427C680.787 436.408 681.672 437.192 682.72 437.69L722.82 438.46C723.886 437.971 724.79 437.186 725.422 436.199C726.055 435.211 726.391 434.063 726.39 432.89V429.89L679.22 428.96Z" fill="black"/>
<path opacity="0.1" d="M678.72 439.57L730.97 440.57V431.9L678.72 430.9V439.57Z" fill="black"/>
<path d="M676.72 439.57L728.97 440.57V431.9L676.72 430.9V439.57Z" fill="#3F3D56"/>
<path d="M454.79 235.88C454.87 242.88 451.63 249.48 448.88 255.95C438.867 279.518 434.531 305.109 436.22 330.66C436.95 341.66 438.8 352.66 436.95 363.56C435.1 374.46 428.52 385.33 417.95 388.46C435.48 398.91 459.21 397.81 475.71 385.8C484.5 379.4 491.05 370.47 497.46 361.69C496.699 377.462 492.132 392.816 484.15 406.44C498.578 405.162 512.577 400.869 525.24 393.837C537.903 386.805 548.948 377.192 557.66 365.62C561.97 359.81 565.72 353.43 567.38 346.39C570.47 333.39 566.16 319.88 562.87 306.89C560.121 296.031 558.06 285.009 556.7 273.89C556.27 270.33 555.92 266.67 556.8 263.19C557.8 259.12 560.47 255.68 562.44 251.97C568.04 241.43 568.17 228.67 565.3 217.09C562.43 205.51 556.81 194.83 551.24 184.28C546.78 175.82 541.94 166.97 533.78 162C528.68 158.9 522.78 157.61 516.9 156.36L491.53 150.93C485.98 149.74 480.27 148.55 474.66 149.42C465.19 150.9 458.52 157.74 452.66 164.76C448.07 170.22 436.85 180.47 436.06 187.62C435.34 194.21 441.16 205.25 442.15 212.2C443.45 221.2 444.37 218.2 449.45 223.72C452.66 227.14 454.73 231.09 454.79 235.88Z" fill="#3F3D56"/>
<path d="M300.26 255.59H200.66C200.527 255.59 200.4 255.537 200.306 255.444C200.213 255.35 200.16 255.223 200.16 255.09C200.16 254.957 200.213 254.83 200.306 254.736C200.4 254.643 200.527 254.59 200.66 254.59H300.26C300.393 254.59 300.52 254.643 300.614 254.736C300.707 254.83 300.76 254.957 300.76 255.09C300.76 255.223 300.707 255.35 300.614 255.444C300.52 255.537 300.393 255.59 300.26 255.59Z" fill="#F2F2F2"/>
<path d="M300.26 264.59H200.66C200.527 264.59 200.4 264.537 200.306 264.444C200.213 264.35 200.16 264.223 200.16 264.09C200.16 263.957 200.213 263.83 200.306 263.736C200.4 263.643 200.527 263.59 200.66 263.59H300.26C300.393 263.59 300.52 263.643 300.614 263.736C300.707 263.83 300.76 263.957 300.76 264.09C300.76 264.223 300.707 264.35 300.614 264.444C300.52 264.537 300.393 264.59 300.26 264.59Z" fill="#F2F2F2"/>
<path d="M300.26 273.59H200.66C200.527 273.59 200.4 273.537 200.306 273.444C200.213 273.35 200.16 273.223 200.16 273.09C200.16 272.957 200.213 272.83 200.306 272.736C200.4 272.643 200.527 272.59 200.66 272.59H300.26C300.393 272.59 300.52 272.643 300.614 272.736C300.707 272.83 300.76 272.957 300.76 273.09C300.76 273.223 300.707 273.35 300.614 273.444C300.52 273.537 300.393 273.59 300.26 273.59Z" fill="#F2F2F2"/>
</svg>
